<svg xmlns="http://www.w3.org/2000/svg" width="185" height="43" fill="none" viewBox="0 0 185 43"><path fill="#fff" d="M0 10.8162L26.3298 2.78307L52.5848 12.8492V10.8696L26.2551 0.000427246C26.007 0.0991405 0.258789 10.7148 0 10.8162Z"/><mask id="mask0_0_1543" width="53" height="13" x="0" y="0" maskUnits="userSpaceOnUse" style="mask-type:luminance"><path fill="#fff" d="M0 10.8166L26.3298 2.78345L52.5848 12.8495V10.8699L26.2551 0.000801086C26.007 0.0995143 0.258789 10.7152 0 10.8166Z"/></mask><g mask="url(#mask0_0_1543)"><path fill="#fff" d="M52.5821 0.000801086H0V12.8495H52.5821V0.000801086Z"/></g><path fill="#fff" d="M0.349609 14.1013L26.3299 7.68489L52.0141 15.8701L52.3289 14.0853L26.2552 4.90224C26.0071 5.00095 0.605731 13.9972 0.349609 14.1013Z"/><mask id="mask1_0_1543" width="53" height="12" x="0" y="4" maskUnits="userSpaceOnUse" style="mask-type:luminance"><path fill="#fff" d="M0.350952 14.1027L26.3312 7.68633L52.0154 15.8715L52.3302 14.0867L26.2566 4.90368C26.0084 5.00239 0.607073 13.9987 0.350952 14.1027Z"/></mask><g mask="url(#mask1_0_1543)"><path fill="#fff" d="M52.3302 4.90368H0.350952V15.8715H52.3302V4.90368Z"/></g><path fill="#fff" d="M0.92395 17.1028L26.3306 12.7061L51.1771 18.797L51.6973 17.0281L26.2559 9.92078C26.0078 10.0195 1.18007 16.9988 0.92395 17.1028Z"/><mask id="mask2_0_1543" width="52" height="10" x="0" y="9" maskUnits="userSpaceOnUse" style="mask-type:luminance"><path fill="#fff" d="M0.925781 17.1014L26.3325 12.7047L51.1789 18.7956L51.6991 17.0267L26.2578 9.91939C26.0096 10.0181 1.1819 16.9974 0.925781 17.1014Z"/></mask><g mask="url(#mask2_0_1543)"><path fill="#fff" d="M51.6991 9.92414H0.925781V18.8003H51.6991V9.92414Z"/></g><path fill="#fff" d="M1.83459 20.0254L26.3315 17.6856L50.0814 21.6955L50.7644 19.94L26.2568 14.9029C26.0087 15.0016 2.09338 19.9213 1.83459 20.0227"/><mask id="mask3_0_1543" width="50" height="8" x="1" y="14" maskUnits="userSpaceOnUse" style="mask-type:luminance"><path fill="#fff" d="M1.83618 20.0246L26.3331 17.6848L50.083 21.6947L50.7659 19.9392L26.2584 14.9021C26.0103 15.0008 2.09497 19.9205 1.83618 20.0219"/></mask><g mask="url(#mask3_0_1543)"><path fill="#fff" d="M50.7659 14.9069H1.83618V21.6994H50.7659V14.9069Z"/></g><path fill="#fff" d="M3.16907 23.0516L26.3293 22.7048L48.5478 24.6897L49.4416 22.9716L26.2546 19.9248C26.0065 20.0235 3.42786 22.9502 3.16907 23.0543"/><mask id="mask4_0_1543" width="47" height="6" x="3" y="19" maskUnits="userSpaceOnUse" style="mask-type:luminance"><path fill="#fff" d="M3.16992 23.0516L26.3302 22.7048L48.5487 24.6898L49.4424 22.9716L26.2555 19.9248C26.0074 20.0235 3.42871 22.9503 3.16992 23.0543"/></mask><g mask="url(#mask4_0_1543)"><path fill="#fff" d="M49.4424 19.9248H3.16992V24.6898H49.4424V19.9248Z"/></g><path fill="#fff" d="M4.9641 26.2369L26.3288 27.7683L46.4157 28.0111L47.6376 26.2235L26.2515 24.9856C26.0034 25.0843 5.21755 26.1355 4.96143 26.2369"/><mask id="mask5_0_1543" width="44" height="5" x="4" y="24" maskUnits="userSpaceOnUse" style="mask-type:luminance"><path fill="#fff" d="M4.96227 26.2385L26.327 27.7699L46.4138 28.0126L47.6357 26.2251L26.2496 24.9872C26.0015 25.0859 5.21572 26.1371 4.95959 26.2385"/></mask><g mask="url(#mask5_0_1543)"><path fill="#fff" d="M47.6378 24.9872H4.96436V28.0153H47.6378V24.9872Z"/></g><path fill="#fff" d="M26.2555 29.8349C26.1328 29.8829 21.6106 29.8696 17.0565 29.8562C12.425 29.8402 7.75609 29.8269 7.62537 29.8776L26.3302 32.5268L43.3569 31.7238L45.0591 29.7735L26.2555 29.8349Z"/><mask id="mask6_0_1543" width="39" height="4" x="7" y="29" maskUnits="userSpaceOnUse" style="mask-type:luminance"><path fill="#fff" d="M26.2564 29.8329C26.1336 29.8809 21.6115 29.8676 17.0573 29.8543C12.4258 29.8383 7.75695 29.8249 7.62622 29.8756L26.3311 32.5249L43.3578 31.7218L45.0599 29.7716L26.2564 29.8329Z"/></mask><g mask="url(#mask6_0_1543)"><path fill="#fff" d="M45.0599 29.7716H7.62622V32.5222H45.0599V29.7716Z"/></g><path fill="#fff" d="M26.2562 34.7777C26.1335 34.8257 22.4677 34.5402 18.7967 34.2548C15.1149 33.9666 11.4252 33.6812 11.2971 33.7319L26.3282 37.467L38.5793 35.9702L41.402 33.6491L26.2535 34.7777H26.2562Z"/><mask id="mask7_0_1543" width="31" height="5" x="11" y="33" maskUnits="userSpaceOnUse" style="mask-type:luminance"><path fill="#fff" d="M26.258 34.7798C26.1353 34.8279 22.4696 34.5424 18.7985 34.2569C15.1167 33.9688 11.427 33.6833 11.299 33.734L26.33 37.4691L38.5812 35.9724L41.4038 33.6513L26.2553 34.7798H26.258Z"/></mask><g mask="url(#mask7_0_1543)"><path fill="#fff" d="M41.4038 33.6513H11.299V37.4691H41.4038V33.6513Z"/></g><path fill="#fff" d="M26.2549 39.9987C25.8868 39.9133 24.7982 39.5531 17.0746 38.1978C21.5167 41.0712 26.3296 42.6906 26.3296 42.6906C26.3296 42.6906 30.1581 41.49 35.4246 38.1978C29.267 39.361 26.2576 39.9987 26.2549 39.9987Z"/><mask id="mask8_0_1543" width="19" height="5" x="17" y="38" maskUnits="userSpaceOnUse" style="mask-type:luminance"><path fill="#fff" d="M26.2537 39.997C25.8855 39.9116 24.797 39.5515 17.0734 38.1962C21.5155 41.0695 26.3284 42.689 26.3284 42.689C26.3284 42.689 30.1569 41.4884 35.4234 38.1962C29.2658 39.3594 26.2564 39.997 26.2537 39.997Z"/></mask><g mask="url(#mask8_0_1543)"><path fill="#fff" d="M35.4207 38.1962H17.0734V42.689H35.4207V38.1962Z"/></g><path fill="#fff" d="M64.121 15.109H68.749C69.43 15.109 69.997 14.92 70.451 14.542 70.905 14.149 71.132 13.589 71.132 12.863 71.132 12.046 70.928 11.471 70.519 11.138 70.111 10.806 69.521 10.639 68.749 10.639H64.121V15.109ZM61.284 8.325H69.158C70.61 8.325 71.775 8.658 72.652 9.323 73.529 9.989 73.968 10.995 73.968 12.341 73.968 13.158 73.764 13.861 73.355 14.451 72.962 15.026 72.395 15.472 71.654 15.79V15.835C72.652 16.047 73.408 16.524 73.923 17.265 74.437 17.991 74.694 18.906 74.694 20.01 74.694 20.646 74.581 21.243 74.354 21.803 74.127 22.347 73.771 22.824 73.287 23.232 72.803 23.625 72.183 23.943 71.427 24.185 70.67 24.412 69.77 24.526 68.727 24.526H61.284V8.325ZM64.121 22.211H69.135C69.997 22.211 70.663 21.992 71.132 21.553 71.616 21.099 71.858 20.464 71.858 19.647 71.858 18.845 71.616 18.233 71.132 17.809 70.663 17.371 69.997 17.151 69.135 17.151H64.121V22.211ZM77.26 8.325H80.097V22.075H88.333V24.526H77.26V8.325ZM90.108 8.325H92.944V17.764C92.944 18.308 92.967 18.861 93.012 19.42 93.073 19.98 93.224 20.487 93.466 20.94 93.723 21.379 94.101 21.742 94.6 22.03 95.115 22.317 95.833 22.461 96.756 22.461 97.679 22.461 98.39 22.317 98.889 22.03 99.403 21.742 99.781 21.379 100.023 20.94 100.281 20.487 100.432 19.98 100.477 19.42 100.538 18.861 100.568 18.308 100.568 17.764V8.325H103.404V18.694C103.404 19.738 103.245 20.646 102.928 21.417 102.61 22.188 102.156 22.839 101.566 23.368 100.991 23.883 100.296 24.268 99.479 24.526 98.662 24.783 97.754 24.911 96.756 24.911 95.758 24.911 94.85 24.783 94.033 24.526 93.216 24.268 92.513 23.883 91.923 23.368 91.348 22.839 90.902 22.188 90.584 21.417 90.267 20.646 90.108 19.738 90.108 18.694V8.325ZM106.664 8.325H118.327V10.775H109.501V15.018H117.669V17.333H109.501V22.075H118.486V24.526H106.664V8.325ZM127.271 8.325H130.108V22.075H138.344V24.526H127.271V8.325ZM140.3 8.325H143.137V24.526H140.3V8.325ZM146.502 8.325H149.497L156.894 20.26H156.939V8.325H159.64V24.526H156.644L149.27 12.613H149.202V24.526H146.502V8.325ZM162.99 8.325H174.653V10.775H165.827V15.018H173.995V17.333H165.827V22.075H174.812V24.526H162.99V8.325ZM60.356 27.877H65.145V28.694H61.326V31.011H64.675V31.828H61.326V35.167H60.356V27.877ZM66.709 32.532C66.709 32.852 66.75 33.138 66.832 33.39 66.92 33.635 67.039 33.843 67.189 34.013 67.339 34.176 67.512 34.302 67.71 34.391 67.914 34.479 68.128 34.523 68.353 34.523 68.578 34.523 68.789 34.479 68.986 34.391 69.19 34.302 69.367 34.176 69.517 34.013 69.667 33.843 69.782 33.635 69.864 33.39 69.952 33.138 69.997 32.852 69.997 32.532 69.997 32.213 69.952 31.93 69.864 31.685 69.782 31.433 69.667 31.222 69.517 31.052 69.367 30.882 69.19 30.753 68.986 30.664 68.789 30.576 68.578 30.531 68.353 30.531 68.128 30.531 67.914 30.576 67.71 30.664 67.512 30.753 67.339 30.882 67.189 31.052 67.039 31.222 66.92 31.433 66.832 31.685 66.75 31.93 66.709 32.213 66.709 32.532ZM65.79 32.532C65.79 32.145 65.845 31.784 65.954 31.45 66.062 31.11 66.226 30.817 66.444 30.572 66.661 30.32 66.93 30.123 67.25 29.98 67.57 29.837 67.938 29.766 68.353 29.766 68.775 29.766 69.142 29.837 69.456 29.98 69.776 30.123 70.044 30.32 70.262 30.572 70.48 30.817 70.643 31.11 70.752 31.45 70.861 31.784 70.916 32.145 70.916 32.532 70.916 32.92 70.861 33.281 70.752 33.615 70.643 33.948 70.48 34.241 70.262 34.493 70.044 34.738 69.776 34.932 69.456 35.075 69.142 35.211 68.775 35.279 68.353 35.279 67.938 35.279 67.57 35.211 67.25 35.075 66.93 34.932 66.661 34.738 66.444 34.493 66.226 34.241 66.062 33.948 65.954 33.615 65.845 33.281 65.79 32.92 65.79 32.532ZM71.908 29.888H72.725V31.001H72.745C72.956 30.572 73.215 30.256 73.521 30.051 73.828 29.847 74.216 29.752 74.685 29.766V30.684C74.338 30.684 74.042 30.732 73.797 30.827 73.552 30.923 73.355 31.062 73.205 31.246 73.055 31.43 72.946 31.654 72.878 31.92 72.81 32.179 72.776 32.478 72.776 32.818V35.167H71.908V29.888ZM78.885 31.522C78.885 31.889 78.933 32.253 79.028 32.614 79.123 32.968 79.273 33.288 79.477 33.574 79.681 33.86 79.943 34.091 80.263 34.268 80.583 34.438 80.964 34.523 81.407 34.523 81.849 34.523 82.23 34.438 82.55 34.268 82.87 34.091 83.132 33.86 83.337 33.574 83.541 33.288 83.691 32.968 83.786 32.614 83.881 32.253 83.929 31.889 83.929 31.522 83.929 31.154 83.881 30.793 83.786 30.439 83.691 30.079 83.541 29.755 83.337 29.469 83.132 29.184 82.87 28.956 82.55 28.785 82.23 28.608 81.849 28.52 81.407 28.52 80.964 28.52 80.583 28.608 80.263 28.785 79.943 28.956 79.681 29.184 79.477 29.469 79.273 29.755 79.123 30.079 79.028 30.439 78.933 30.793 78.885 31.154 78.885 31.522ZM77.915 31.522C77.915 31.025 77.987 30.548 78.129 30.092 78.279 29.629 78.5 29.221 78.793 28.867 79.086 28.513 79.45 28.231 79.886 28.02 80.321 27.809 80.828 27.703 81.407 27.703 81.985 27.703 82.493 27.809 82.928 28.02 83.364 28.231 83.728 28.513 84.021 28.867 84.313 29.221 84.531 29.629 84.674 30.092 84.824 30.548 84.899 31.025 84.899 31.522 84.899 32.019 84.824 32.498 84.674 32.961 84.531 33.417 84.313 33.822 84.021 34.176 83.728 34.53 83.364 34.813 82.928 35.024 82.493 35.228 81.985 35.33 81.407 35.33 80.828 35.33 80.321 35.228 79.886 35.024 79.45 34.813 79.086 34.53 78.793 34.176 78.5 33.822 78.279 33.417 78.129 32.961 77.987 32.498 77.915 32.019 77.915 31.522ZM89.521 31.583C89.453 31.249 89.31 30.991 89.093 30.807 88.875 30.623 88.582 30.531 88.215 30.531 87.901 30.531 87.639 30.589 87.428 30.705 87.217 30.821 87.047 30.974 86.918 31.164 86.795 31.355 86.707 31.576 86.652 31.828 86.598 32.073 86.571 32.328 86.571 32.594 86.571 32.839 86.598 33.077 86.652 33.308 86.714 33.54 86.806 33.747 86.928 33.931 87.051 34.108 87.211 34.251 87.408 34.36 87.605 34.469 87.84 34.523 88.112 34.523 88.541 34.523 88.875 34.411 89.113 34.187 89.358 33.962 89.508 33.645 89.562 33.237H90.451C90.355 33.89 90.11 34.394 89.715 34.748 89.327 35.102 88.797 35.279 88.123 35.279 87.721 35.279 87.364 35.214 87.051 35.085 86.744 34.956 86.486 34.772 86.275 34.534 86.07 34.295 85.914 34.013 85.805 33.686 85.703 33.353 85.652 32.989 85.652 32.594 85.652 32.199 85.703 31.831 85.805 31.491 85.907 31.144 86.06 30.844 86.264 30.593 86.475 30.334 86.738 30.133 87.051 29.99 87.364 29.84 87.728 29.766 88.143 29.766 88.443 29.766 88.722 29.803 88.98 29.878 89.246 29.946 89.477 30.055 89.675 30.205 89.879 30.354 90.046 30.545 90.175 30.776 90.304 31.001 90.386 31.27 90.42 31.583H89.521ZM95.087 32.022C95.073 31.818 95.026 31.624 94.944 31.44 94.869 31.256 94.764 31.1 94.628 30.97 94.498 30.834 94.342 30.729 94.158 30.654 93.981 30.572 93.784 30.531 93.566 30.531 93.341 30.531 93.137 30.572 92.953 30.654 92.776 30.729 92.623 30.834 92.494 30.97 92.364 31.106 92.262 31.266 92.187 31.45 92.112 31.627 92.068 31.818 92.055 32.022H95.087ZM95.924 33.492C95.809 34.084 95.553 34.53 95.158 34.83 94.764 35.129 94.267 35.279 93.668 35.279 93.246 35.279 92.878 35.211 92.565 35.075 92.259 34.939 92 34.748 91.789 34.503 91.578 34.258 91.418 33.965 91.309 33.625 91.207 33.285 91.149 32.914 91.136 32.512 91.136 32.11 91.197 31.743 91.32 31.409 91.442 31.076 91.612 30.787 91.83 30.542 92.055 30.296 92.317 30.106 92.616 29.97 92.922 29.834 93.256 29.766 93.617 29.766 94.086 29.766 94.474 29.864 94.781 30.062 95.094 30.252 95.342 30.497 95.526 30.797 95.717 31.096 95.846 31.423 95.914 31.777 95.989 32.131 96.02 32.468 96.006 32.788H92.055C92.048 33.019 92.075 33.24 92.136 33.451 92.198 33.656 92.296 33.839 92.432 34.003 92.569 34.159 92.742 34.285 92.953 34.38 93.164 34.476 93.413 34.523 93.698 34.523 94.066 34.523 94.365 34.438 94.597 34.268 94.835 34.098 94.992 33.839 95.067 33.492H95.924ZM101.582 35.146C101.432 35.235 101.224 35.279 100.959 35.279 100.734 35.279 100.554 35.218 100.418 35.095 100.288 34.966 100.224 34.758 100.224 34.472 99.986 34.758 99.706 34.966 99.387 35.095 99.073 35.218 98.733 35.279 98.366 35.279 98.127 35.279 97.899 35.252 97.681 35.197 97.47 35.143 97.287 35.058 97.13 34.942 96.974 34.826 96.848 34.677 96.752 34.493 96.664 34.302 96.62 34.074 96.62 33.809 96.62 33.509 96.671 33.264 96.773 33.074 96.875 32.883 97.008 32.73 97.171 32.614 97.341 32.492 97.532 32.4 97.743 32.338 97.961 32.277 98.182 32.226 98.406 32.185 98.645 32.138 98.869 32.104 99.08 32.083 99.298 32.056 99.489 32.022 99.652 31.981 99.815 31.934 99.945 31.869 100.04 31.787 100.135 31.699 100.183 31.573 100.183 31.409 100.183 31.219 100.145 31.066 100.071 30.95 100.002 30.834 99.911 30.746 99.795 30.684 99.686 30.623 99.56 30.582 99.417 30.562 99.281 30.542 99.145 30.531 99.009 30.531 98.641 30.531 98.335 30.603 98.09 30.746 97.845 30.882 97.712 31.144 97.692 31.532H96.824C96.837 31.205 96.905 30.93 97.028 30.705 97.151 30.48 97.314 30.3 97.518 30.164 97.722 30.021 97.954 29.919 98.212 29.857 98.478 29.796 98.76 29.766 99.06 29.766 99.298 29.766 99.533 29.783 99.764 29.817 100.002 29.851 100.217 29.922 100.407 30.031 100.598 30.133 100.751 30.279 100.867 30.47 100.983 30.661 101.04 30.909 101.04 31.215V33.931C101.04 34.135 101.051 34.285 101.071 34.38 101.098 34.476 101.18 34.523 101.316 34.523 101.391 34.523 101.48 34.506 101.582 34.472V35.146ZM100.173 32.441C100.064 32.522 99.921 32.584 99.744 32.624 99.567 32.658 99.38 32.689 99.182 32.716 98.992 32.737 98.798 32.764 98.6 32.798 98.403 32.825 98.226 32.873 98.069 32.941 97.913 33.009 97.784 33.108 97.681 33.237 97.586 33.359 97.539 33.53 97.539 33.747 97.539 33.89 97.566 34.013 97.62 34.115 97.681 34.21 97.756 34.289 97.845 34.35 97.94 34.411 98.049 34.455 98.172 34.483 98.294 34.51 98.423 34.523 98.56 34.523 98.845 34.523 99.09 34.486 99.295 34.411 99.499 34.329 99.666 34.231 99.795 34.115 99.924 33.993 100.019 33.863 100.081 33.727 100.142 33.584 100.173 33.451 100.173 33.329V32.441ZM102.389 29.888H103.206V30.725H103.227C103.587 30.085 104.159 29.766 104.942 29.766 105.289 29.766 105.578 29.813 105.81 29.909 106.041 30.004 106.228 30.137 106.371 30.307 106.514 30.477 106.613 30.681 106.667 30.919 106.729 31.151 106.759 31.409 106.759 31.695V35.167H105.891V31.593C105.891 31.266 105.796 31.008 105.605 30.817 105.415 30.627 105.153 30.531 104.819 30.531 104.554 30.531 104.322 30.572 104.125 30.654 103.934 30.736 103.774 30.851 103.645 31.001 103.516 31.151 103.417 31.328 103.349 31.532 103.288 31.729 103.257 31.947 103.257 32.185V35.167H102.389V29.888ZM111.047 27.877H115.836V28.694H112.017V31.011H115.366V31.828H112.017V35.167H111.047V27.877ZM116.736 29.888H117.553V31.001H117.574C117.785 30.572 118.043 30.256 118.35 30.051 118.656 29.847 119.044 29.752 119.514 29.766V30.684C119.166 30.684 118.87 30.732 118.625 30.827 118.38 30.923 118.183 31.062 118.033 31.246 117.883 31.43 117.774 31.654 117.706 31.92 117.638 32.179 117.604 32.478 117.604 32.818V35.167H116.736V29.888ZM123.653 32.022C123.639 31.818 123.592 31.624 123.51 31.44 123.435 31.256 123.33 31.1 123.194 30.97 123.064 30.834 122.908 30.729 122.724 30.654 122.547 30.572 122.35 30.531 122.132 30.531 121.907 30.531 121.703 30.572 121.519 30.654 121.342 30.729 121.189 30.834 121.06 30.97 120.93 31.106 120.828 31.266 120.753 31.45 120.678 31.627 120.634 31.818 120.621 32.022H123.653ZM124.49 33.492C124.375 34.084 124.119 34.53 123.724 34.83 123.33 35.129 122.833 35.279 122.234 35.279 121.812 35.279 121.444 35.211 121.131 35.075 120.825 34.939 120.566 34.748 120.355 34.503 120.144 34.258 119.984 33.965 119.875 33.625 119.773 33.285 119.715 32.914 119.702 32.512 119.702 32.11 119.763 31.743 119.886 31.409 120.008 31.076 120.178 30.787 120.396 30.542 120.621 30.296 120.883 30.106 121.182 29.97 121.488 29.834 121.822 29.766 122.183 29.766 122.652 29.766 123.04 29.864 123.347 30.062 123.66 30.252 123.908 30.497 124.092 30.797 124.283 31.096 124.412 31.423 124.48 31.777 124.555 32.131 124.586 32.468 124.572 32.788H120.621C120.614 33.019 120.641 33.24 120.702 33.451 120.764 33.656 120.862 33.839 120.998 34.003 121.135 34.159 121.308 34.285 121.519 34.38 121.73 34.476 121.979 34.523 122.264 34.523 122.632 34.523 122.932 34.438 123.163 34.268 123.401 34.098 123.558 33.839 123.633 33.492H124.49ZM126.39 28.939H125.523V27.877H126.39V28.939ZM125.523 29.888H126.39V35.167H125.523V29.888ZM132.289 34.717C132.289 35.582 132.091 36.229 131.696 36.657 131.302 37.086 130.682 37.301 129.838 37.301 129.593 37.301 129.341 37.273 129.083 37.219 128.831 37.164 128.599 37.076 128.388 36.953 128.184 36.831 128.014 36.671 127.878 36.474 127.742 36.276 127.667 36.035 127.653 35.749H128.521C128.528 35.905 128.575 36.038 128.664 36.147 128.759 36.256 128.872 36.344 129.001 36.412 129.137 36.48 129.283 36.528 129.44 36.555 129.596 36.589 129.746 36.606 129.889 36.606 130.175 36.606 130.417 36.555 130.614 36.453 130.811 36.358 130.975 36.222 131.104 36.045 131.233 35.875 131.325 35.667 131.38 35.422 131.441 35.177 131.472 34.908 131.472 34.615V34.268H131.451C131.302 34.595 131.074 34.837 130.767 34.993 130.468 35.143 130.148 35.218 129.807 35.218 129.413 35.218 129.069 35.146 128.776 35.003 128.484 34.86 128.239 34.67 128.041 34.432 127.844 34.187 127.694 33.904 127.592 33.584 127.497 33.257 127.449 32.914 127.449 32.553 127.449 32.24 127.49 31.92 127.571 31.593 127.653 31.26 127.789 30.96 127.98 30.695 128.17 30.422 128.422 30.201 128.735 30.031 129.049 29.854 129.433 29.766 129.889 29.766 130.223 29.766 130.529 29.84 130.808 29.99 131.087 30.133 131.305 30.351 131.462 30.644H131.472V29.888H132.289V34.717ZM129.859 34.462C130.144 34.462 130.386 34.404 130.583 34.289 130.788 34.166 130.951 34.01 131.074 33.819 131.196 33.622 131.285 33.4 131.339 33.155 131.4 32.91 131.431 32.665 131.431 32.42 131.431 32.189 131.404 31.961 131.349 31.736 131.295 31.511 131.206 31.311 131.084 31.134 130.968 30.95 130.815 30.804 130.624 30.695 130.434 30.586 130.202 30.531 129.93 30.531 129.651 30.531 129.413 30.586 129.215 30.695 129.018 30.797 128.855 30.936 128.725 31.113 128.603 31.29 128.511 31.494 128.45 31.726 128.395 31.957 128.368 32.199 128.368 32.451 128.368 32.689 128.392 32.927 128.439 33.166 128.487 33.404 128.569 33.622 128.684 33.819 128.8 34.01 128.953 34.166 129.144 34.289 129.334 34.404 129.573 34.462 129.859 34.462ZM133.598 27.877H134.465V30.664H134.486C134.554 30.501 134.649 30.365 134.772 30.256 134.894 30.14 135.03 30.048 135.18 29.98 135.337 29.905 135.497 29.851 135.66 29.817 135.83 29.783 135.994 29.766 136.15 29.766 136.497 29.766 136.787 29.813 137.018 29.909 137.249 30.004 137.437 30.137 137.58 30.307 137.722 30.477 137.821 30.681 137.876 30.919 137.937 31.151 137.968 31.409 137.968 31.695V35.167H137.1V31.593C137.1 31.266 137.004 31.008 136.814 30.817 136.623 30.627 136.361 30.531 136.028 30.531 135.762 30.531 135.531 30.572 135.333 30.654 135.143 30.736 134.983 30.851 134.853 31.001 134.724 31.151 134.625 31.328 134.557 31.532 134.496 31.729 134.465 31.947 134.465 32.185V35.167H133.598V27.877ZM140.476 29.888H141.527V30.654H140.476V33.931C140.476 34.033 140.483 34.115 140.496 34.176 140.517 34.238 140.551 34.285 140.598 34.319 140.646 34.353 140.711 34.377 140.792 34.391 140.881 34.398 140.993 34.401 141.129 34.401H141.527V35.167H140.864C140.639 35.167 140.445 35.153 140.282 35.126 140.125 35.092 139.996 35.034 139.894 34.952 139.798 34.871 139.727 34.755 139.679 34.605 139.632 34.455 139.608 34.258 139.608 34.013V30.654H138.709V29.888H139.608V28.306H140.476V29.888ZM149.693 30.011C149.638 29.487 149.448 29.109 149.121 28.877 148.801 28.639 148.389 28.52 147.886 28.52 147.681 28.52 147.481 28.54 147.283 28.581 147.086 28.622 146.909 28.69 146.752 28.785 146.603 28.881 146.48 29.01 146.385 29.173 146.296 29.33 146.252 29.527 146.252 29.766 146.252 29.99 146.317 30.174 146.446 30.317 146.582 30.453 146.759 30.565 146.977 30.654 147.202 30.742 147.453 30.817 147.733 30.878 148.012 30.933 148.294 30.994 148.58 31.062 148.873 31.13 149.158 31.212 149.438 31.307 149.717 31.396 149.965 31.518 150.183 31.675 150.408 31.831 150.584 32.029 150.714 32.267 150.85 32.505 150.918 32.805 150.918 33.166 150.918 33.553 150.83 33.887 150.653 34.166 150.482 34.438 150.261 34.663 149.989 34.84 149.717 35.01 149.41 35.133 149.07 35.208 148.736 35.289 148.403 35.33 148.069 35.33 147.661 35.33 147.273 35.279 146.905 35.177 146.545 35.075 146.225 34.922 145.946 34.717 145.673 34.506 145.456 34.241 145.292 33.921 145.136 33.594 145.057 33.21 145.057 32.767H145.976C145.976 33.074 146.034 33.339 146.15 33.564 146.272 33.782 146.429 33.962 146.62 34.105 146.817 34.248 147.045 34.353 147.304 34.421 147.562 34.489 147.828 34.523 148.1 34.523 148.318 34.523 148.536 34.503 148.754 34.462 148.978 34.421 149.179 34.353 149.356 34.258 149.533 34.156 149.676 34.02 149.785 33.85 149.894 33.679 149.948 33.462 149.948 33.196 149.948 32.944 149.88 32.74 149.744 32.584 149.615 32.427 149.438 32.301 149.213 32.206 148.995 32.104 148.747 32.022 148.468 31.961 148.189 31.899 147.903 31.838 147.61 31.777 147.324 31.709 147.042 31.634 146.763 31.552 146.483 31.464 146.232 31.352 146.007 31.215 145.789 31.072 145.612 30.892 145.476 30.674 145.347 30.45 145.282 30.171 145.282 29.837 145.282 29.469 145.357 29.153 145.507 28.888 145.656 28.615 145.854 28.394 146.099 28.224 146.351 28.047 146.633 27.918 146.946 27.836 147.266 27.747 147.593 27.703 147.926 27.703 148.301 27.703 148.648 27.747 148.968 27.836 149.288 27.924 149.567 28.064 149.805 28.254 150.05 28.445 150.241 28.687 150.377 28.979 150.52 29.265 150.598 29.609 150.612 30.011H149.693ZM155.619 32.022C155.605 31.818 155.558 31.624 155.476 31.44 155.401 31.256 155.296 31.1 155.16 30.97 155.03 30.834 154.874 30.729 154.69 30.654 154.513 30.572 154.316 30.531 154.098 30.531 153.873 30.531 153.669 30.572 153.485 30.654 153.308 30.729 153.155 30.834 153.026 30.97 152.896 31.106 152.794 31.266 152.719 31.45 152.645 31.627 152.6 31.818 152.587 32.022H155.619ZM156.456 33.492C156.341 34.084 156.085 34.53 155.691 34.83 155.296 35.129 154.799 35.279 154.2 35.279 153.778 35.279 153.41 35.211 153.097 35.075 152.791 34.939 152.532 34.748 152.321 34.503 152.11 34.258 151.95 33.965 151.841 33.625 151.739 33.285 151.681 32.914 151.668 32.512 151.668 32.11 151.729 31.743 151.852 31.409 151.974 31.076 152.144 30.787 152.362 30.542 152.587 30.296 152.849 30.106 153.148 29.97 153.455 29.834 153.788 29.766 154.149 29.766 154.619 29.766 155.006 29.864 155.313 30.062 155.626 30.252 155.874 30.497 156.058 30.797 156.249 31.096 156.378 31.423 156.446 31.777 156.521 32.131 156.552 32.468 156.538 32.788H152.587C152.58 33.019 152.607 33.24 152.668 33.451 152.73 33.656 152.828 33.839 152.964 34.003 153.101 34.159 153.274 34.285 153.485 34.38 153.696 34.476 153.945 34.523 154.231 34.523 154.598 34.523 154.898 34.438 155.129 34.268 155.367 34.098 155.524 33.839 155.599 33.492H156.456ZM157.407 29.888H158.224V31.001H158.244C158.455 30.572 158.714 30.256 159.02 30.051 159.326 29.847 159.714 29.752 160.184 29.766V30.684C159.837 30.684 159.541 30.732 159.296 30.827 159.051 30.923 158.853 31.062 158.704 31.246 158.554 31.43 158.445 31.654 158.377 31.92 158.309 32.179 158.275 32.478 158.275 32.818V35.167H157.407V29.888ZM163.217 35.167H162.287L160.327 29.888H161.297L162.777 34.289H162.798L164.238 29.888H165.146L163.217 35.167ZM166.861 28.939H165.994V27.877H166.861V28.939ZM165.994 29.888H166.861V35.167H165.994V29.888ZM171.79 31.583C171.722 31.249 171.579 30.991 171.361 30.807 171.143 30.623 170.85 30.531 170.483 30.531 170.17 30.531 169.908 30.589 169.697 30.705 169.486 30.821 169.315 30.974 169.186 31.164 169.064 31.355 168.975 31.576 168.921 31.828 168.866 32.073 168.839 32.328 168.839 32.594 168.839 32.839 168.866 33.077 168.921 33.308 168.982 33.54 169.074 33.747 169.196 33.931 169.319 34.108 169.479 34.251 169.676 34.36 169.874 34.469 170.108 34.523 170.381 34.523 170.809 34.523 171.143 34.411 171.381 34.187 171.626 33.962 171.776 33.645 171.83 33.237H172.719C172.623 33.89 172.378 34.394 171.984 34.748 171.596 35.102 171.065 35.279 170.391 35.279 169.989 35.279 169.632 35.214 169.319 35.085 169.013 34.956 168.754 34.772 168.543 34.534 168.339 34.295 168.182 34.013 168.073 33.686 167.971 33.353 167.92 32.989 167.92 32.594 167.92 32.199 167.971 31.831 168.073 31.491 168.175 31.144 168.328 30.844 168.533 30.593 168.744 30.334 169.006 30.133 169.319 29.99 169.632 29.84 169.996 29.766 170.411 29.766 170.711 29.766 170.99 29.803 171.249 29.878 171.514 29.946 171.745 30.055 171.943 30.205 172.147 30.354 172.314 30.545 172.443 30.776 172.572 31.001 172.654 31.27 172.688 31.583H171.79ZM177.355 32.022C177.342 31.818 177.294 31.624 177.212 31.44 177.137 31.256 177.032 31.1 176.896 30.97 176.766 30.834 176.61 30.729 176.426 30.654 176.249 30.572 176.052 30.531 175.834 30.531 175.609 30.531 175.405 30.572 175.221 30.654 175.044 30.729 174.891 30.834 174.762 30.97 174.633 31.106 174.53 31.266 174.456 31.45 174.381 31.627 174.336 31.818 174.323 32.022H177.355ZM178.192 33.492C178.077 34.084 177.821 34.53 177.427 34.83 177.032 35.129 176.535 35.279 175.936 35.279 175.514 35.279 175.146 35.211 174.833 35.075 174.527 34.939 174.268 34.748 174.057 34.503 173.846 34.258 173.686 33.965 173.578 33.625 173.475 33.285 173.418 32.914 173.404 32.512 173.404 32.11 173.465 31.743 173.588 31.409 173.71 31.076 173.88 30.787 174.098 30.542 174.323 30.296 174.585 30.106 174.884 29.97 175.191 29.834 175.524 29.766 175.885 29.766 176.355 29.766 176.743 29.864 177.049 30.062 177.362 30.252 177.61 30.497 177.794 30.797 177.985 31.096 178.114 31.423 178.182 31.777 178.257 32.131 178.288 32.468 178.274 32.788H174.323C174.316 33.019 174.343 33.24 174.405 33.451 174.466 33.656 174.564 33.839 174.701 34.003 174.837 34.159 175.01 34.285 175.221 34.38 175.432 34.476 175.681 34.523 175.967 34.523 176.334 34.523 176.634 34.438 176.865 34.268 177.103 34.098 177.26 33.839 177.335 33.492H178.192ZM179.705 33.502C179.711 33.693 179.756 33.856 179.837 33.993 179.919 34.122 180.025 34.227 180.154 34.309 180.29 34.384 180.44 34.438 180.603 34.472 180.773 34.506 180.947 34.523 181.124 34.523 181.26 34.523 181.403 34.513 181.553 34.493 181.702 34.472 181.839 34.435 181.961 34.38 182.09 34.326 182.196 34.248 182.278 34.146 182.359 34.037 182.4 33.901 182.4 33.737 182.4 33.513 182.315 33.342 182.145 33.227 181.975 33.111 181.76 33.019 181.502 32.951 181.25 32.876 180.974 32.812 180.675 32.757 180.375 32.696 180.096 32.614 179.837 32.512 179.586 32.403 179.375 32.253 179.204 32.063 179.034 31.872 178.949 31.607 178.949 31.266 178.949 31.001 179.007 30.773 179.123 30.582 179.245 30.392 179.398 30.239 179.582 30.123 179.773 30 179.984 29.912 180.215 29.857 180.453 29.796 180.688 29.766 180.92 29.766 181.219 29.766 181.495 29.793 181.747 29.847 181.998 29.895 182.22 29.983 182.41 30.113 182.608 30.235 182.764 30.405 182.88 30.623 182.996 30.834 183.064 31.1 183.084 31.42H182.216C182.203 31.249 182.158 31.11 182.084 31.001 182.009 30.885 181.913 30.793 181.798 30.725 181.682 30.657 181.553 30.61 181.41 30.582 181.274 30.548 181.134 30.531 180.991 30.531 180.862 30.531 180.729 30.542 180.593 30.562 180.464 30.582 180.344 30.62 180.236 30.674 180.127 30.722 180.038 30.79 179.97 30.878 179.902 30.96 179.868 31.069 179.868 31.205 179.868 31.355 179.919 31.481 180.021 31.583 180.13 31.678 180.266 31.76 180.43 31.828 180.593 31.889 180.777 31.944 180.981 31.991 181.185 32.032 181.389 32.076 181.593 32.124 181.811 32.172 182.022 32.23 182.227 32.298 182.438 32.366 182.621 32.458 182.778 32.573 182.941 32.682 183.071 32.822 183.166 32.992 183.268 33.162 183.319 33.373 183.319 33.625 183.319 33.945 183.251 34.21 183.115 34.421 182.985 34.632 182.812 34.803 182.594 34.932 182.383 35.061 182.141 35.15 181.869 35.197 181.604 35.252 181.338 35.279 181.073 35.279 180.78 35.279 180.501 35.248 180.236 35.187 179.97 35.126 179.735 35.027 179.531 34.891 179.327 34.748 179.164 34.564 179.041 34.34 178.918 34.108 178.85 33.829 178.837 33.502H179.705Z"/></svg>