<svg xmlns="http://www.w3.org/2000/svg" width="31" height="25" fill="none" viewBox="0 0 31 25"><path fill="#2970ff" d="M0 6.33359L15.4184 1.62948L30.7931 7.52407V6.36484L15.3747 0C15.2294 0.0578053 0.151544 6.27422 0 6.33359Z"/><mask id="mask0_0_1823" width="31" height="8" x="0" y="0" maskUnits="userSpaceOnUse" style="mask-type:luminance"><path fill="#fff" d="M0 6.33359L15.4184 1.62948L30.7931 7.52407V6.36484L15.3747 0C15.2294 0.0578053 0.151544 6.27422 0 6.33359Z"/></mask><g mask="url(#mask0_0_1823)"><path fill="#2970ff" d="M30.7915 0H0V7.52407H30.7915V0Z"/></g><path fill="#2970ff" d="M0.20459 8.25793L15.4184 4.50058L30.4587 9.29375L30.6431 8.24856L15.3746 2.87109C15.2293 2.9289 0.354571 8.197 0.20459 8.25793Z"/><mask id="mask1_0_1823" width="31" height="8" x="0" y="2" maskUnits="userSpaceOnUse" style="mask-type:luminance"><path fill="#fff" d="M0.205322 8.25891L15.4191 4.50156L30.4594 9.29472L30.6438 8.24954L15.3753 2.87207C15.2301 2.92988 0.355304 8.19798 0.205322 8.25891Z"/></mask><g mask="url(#mask1_0_1823)"><path fill="#2970ff" d="M30.6438 2.87207H0.205322V9.29472H30.6438V2.87207Z"/></g><path fill="#2970ff" d="M0.541016 10.0153L15.4189 7.44062L29.9687 11.0074L30.2733 9.97155L15.3751 5.80957C15.2298 5.86738 0.690997 9.95437 0.541016 10.0153Z"/><mask id="mask2_0_1823" width="31" height="7" x="0" y="5" maskUnits="userSpaceOnUse" style="mask-type:luminance"><path fill="#fff" d="M0.542236 10.0143L15.4201 7.43964L29.9699 11.0064L30.2745 9.97058L15.3764 5.80859C15.2311 5.8664 0.692218 9.95339 0.542236 10.0143Z"/></mask><g mask="url(#mask2_0_1823)"><path fill="#2970ff" d="M30.274 5.81152H0.541748V11.0093H30.274V5.81152Z"/></g><path fill="#2970ff" d="M1.07434 11.7272L15.4194 10.357L29.3271 12.7052L29.7271 11.6772L15.3757 8.72754C15.2304 8.78534 1.22588 11.6662 1.07434 11.7256"/><mask id="mask3_0_1823" width="29" height="5" x="1" y="8" maskUnits="userSpaceOnUse" style="mask-type:luminance"><path fill="#fff" d="M1.07532 11.7262L15.4204 10.3561L29.3281 12.7042L29.728 11.6762L15.3767 8.72656C15.2314 8.78437 1.22686 11.6653 1.07532 11.7246"/></mask><g mask="url(#mask3_0_1823)"><path fill="#2970ff" d="M29.6528 8.67969H1.00012V12.6573H29.6528V8.67969Z"/></g><path fill="#2970ff" d="M1.85596 13.499L15.4183 13.2959L28.4292 14.4583L28.9526 13.4521L15.3746 11.668C15.2293 11.7258 2.0075 13.4396 1.85596 13.5006"/><mask id="mask4_0_1823" width="28" height="4" x="1" y="11" maskUnits="userSpaceOnUse" style="mask-type:luminance"><path fill="#fff" d="M1.85657 13.499L15.419 13.2959L28.4299 14.4583L28.9532 13.4521L15.3752 11.668C15.2299 11.7258 2.00811 13.4396 1.85657 13.5006"/></mask><g mask="url(#mask4_0_1823)"><path fill="#2970ff" d="M28.9532 11.668H1.85657V14.4583H28.9532V11.668Z"/></g><path fill="#2970ff" d="M2.90708 15.3636L15.418 16.2603L27.1806 16.4025L27.8962 15.3558L15.3727 14.6309C15.2274 14.6887 3.0555 15.3042 2.90552 15.3636"/><mask id="mask5_0_1823" width="26" height="3" x="2" y="14" maskUnits="userSpaceOnUse" style="mask-type:luminance"><path fill="#fff" d="M2.90586 15.3646L15.4168 16.2613L27.1794 16.4035L27.8949 15.3567L15.3715 14.6318C15.2262 14.6896 3.05428 15.3052 2.9043 15.3646"/></mask><g mask="url(#mask5_0_1823)"><path fill="#2970ff" d="M27.8959 14.6318H2.90686V16.4051H27.8959V14.6318Z"/></g><path fill="#2970ff" d="M15.3749 17.4705C15.3031 17.4986 12.6549 17.4908 9.98809 17.483C7.27592 17.4736 4.54189 17.4658 4.46533 17.4955L15.4187 19.0469L25.3893 18.5766L26.3861 17.4346L15.3749 17.4705Z"/><mask id="mask6_0_1823" width="23" height="3" x="4" y="17" maskUnits="userSpaceOnUse" style="mask-type:luminance"><path fill="#fff" d="M15.3755 17.4695C15.3037 17.4977 12.6556 17.4898 9.9887 17.482C7.27653 17.4727 4.5425 17.4648 4.46594 17.4945L15.4193 19.0459L25.3899 18.5756L26.3867 17.4336L15.3755 17.4695Z"/></mask><g mask="url(#mask6_0_1823)"><path fill="#2970ff" d="M26.3867 17.4336H4.46594V19.0443H26.3867V17.4336Z"/></g><path fill="#2970ff" d="M15.3751 20.365C15.3032 20.3931 13.1566 20.2259 11.0069 20.0587C8.85089 19.89 6.69023 19.7228 6.61523 19.7525L15.4173 21.9398L22.5914 21.0633L24.2443 19.7041L15.3735 20.365H15.3751Z"/><mask id="mask7_0_1823" width="19" height="3" x="6" y="19" maskUnits="userSpaceOnUse" style="mask-type:luminance"><path fill="#fff" d="M15.3766 20.3669C15.3047 20.395 13.1581 20.2279 11.0083 20.0607C8.85236 19.892 6.69169 19.7248 6.6167 19.7545L15.4187 21.9417L22.5929 21.0653L24.2458 19.7061L15.375 20.3669H15.3766Z"/></mask><g mask="url(#mask7_0_1823)"><path fill="#2970ff" d="M24.2458 19.7061H6.6167V21.9417H24.2458V19.7061Z"/></g><path fill="#2970ff" d="M15.3748 23.4227C15.1592 23.3727 14.5218 23.1618 9.9989 22.3682C12.6001 24.0508 15.4185 24.9991 15.4185 24.9991C15.4185 24.9991 17.6605 24.2961 20.7445 22.3682C17.1386 23.0493 15.3764 23.4227 15.3748 23.4227Z"/><mask id="mask8_0_1823" width="12" height="3" x="9" y="22" maskUnits="userSpaceOnUse" style="mask-type:luminance"><path fill="#fff" d="M15.3738 23.4217C15.1582 23.3718 14.5208 23.1608 9.99792 22.3672C12.5992 24.0498 15.4176 24.9981 15.4176 24.9981C15.4176 24.9981 17.6595 24.2951 20.7435 22.3672C17.1377 23.0484 15.3754 23.4217 15.3738 23.4217Z"/></mask><g mask="url(#mask8_0_1823)"><path fill="#2970ff" d="M21.7419 22.3672H10.9979V24.9981H21.7419V22.3672Z"/></g></svg>