<svg xmlns="http://www.w3.org/2000/svg" width="31" height="25" fill="none" viewBox="0 0 31 25"><path fill="#2970ff" d="M7.62939e-06 6.33402L15.4184 1.62991L30.7931 7.5245V6.36526L15.3747 0.000427246C15.2294 0.0582326 0.151551 6.27465 7.62939e-06 6.33402Z"/><mask id="mask0_0_259" width="31" height="8" x="0" y="0" maskUnits="userSpaceOnUse" style="mask-type:luminance"><path fill="#fff" d="M7.62939e-06 6.33414L15.4184 1.63003L30.7931 7.52461V6.36538L15.3747 0.000543594C15.2294 0.0583489 0.151551 6.27477 7.62939e-06 6.33414Z"/></mask><g mask="url(#mask0_0_259)"><path fill="#2970ff" d="M30.7915 0.000543594H7.62939e-06V7.52461H30.7915V0.000543594Z"/></g><path fill="#2970ff" d="M0.204742 8.25753L15.4185 4.50018L30.4589 9.29334L30.6432 8.24816L15.3748 2.87069C15.2295 2.9285 0.354724 8.1966 0.204742 8.25753Z"/><mask id="mask1_0_259" width="31" height="8" x="0" y="2" maskUnits="userSpaceOnUse" style="mask-type:luminance"><path fill="#fff" d="M0.205528 8.25837L15.4193 4.50102L30.4596 9.29418L30.644 8.249L15.3756 2.87153C15.2303 2.92934 0.35551 8.19744 0.205528 8.25837Z"/></mask><g mask="url(#mask1_0_259)"><path fill="#2970ff" d="M30.644 2.87153H0.205528V9.29418H30.644V2.87153Z"/></g><path fill="#2970ff" d="M0.541046 10.0152L15.4189 7.44054L29.9687 11.0073L30.2733 9.97148L15.3752 5.8095C15.2299 5.8673 0.691028 9.95429 0.541046 10.0152Z"/><mask id="mask2_0_259" width="31" height="7" x="0" y="5" maskUnits="userSpaceOnUse" style="mask-type:luminance"><path fill="#fff" d="M0.54229 10.0144L15.4202 7.43974L29.9699 11.0065L30.2746 9.97067L15.3764 5.80869C15.2311 5.86649 0.692271 9.95348 0.54229 10.0144Z"/></mask><g mask="url(#mask2_0_259)"><path fill="#2970ff" d="M30.2743 5.81123H0.54203V11.009H30.2743V5.81123Z"/></g><path fill="#2970ff" d="M1.07434 11.7267L15.4194 10.3565L29.3271 12.7047L29.7271 11.6767L15.3757 8.72706C15.2304 8.78486 1.22588 11.6658 1.07434 11.7251"/><mask id="mask3_0_259" width="29" height="5" x="1" y="8" maskUnits="userSpaceOnUse" style="mask-type:luminance"><path fill="#fff" d="M1.07526 11.7262L15.4204 10.356L29.328 12.7042L29.728 11.6762L15.3766 8.72653C15.2313 8.78433 1.22681 11.6652 1.07526 11.7246"/></mask><g mask="url(#mask3_0_259)"><path fill="#2970ff" d="M29.7279 8.72906H1.07518V12.7067H29.7279V8.72906Z"/></g><path fill="#2970ff" d="M1.85579 13.4987L15.4182 13.2956L28.4291 14.458L28.9524 13.4519L15.3744 11.6677C15.2291 11.7255 2.00733 13.4394 1.85579 13.5003"/><mask id="mask4_0_259" width="28" height="4" x="1" y="11" maskUnits="userSpaceOnUse" style="mask-type:luminance"><path fill="#fff" d="M1.8564 13.4988L15.4188 13.2957L28.4297 14.458L28.9531 13.4519L15.3751 11.6678C15.2298 11.7256 2.00794 13.4394 1.8564 13.5003"/></mask><g mask="url(#mask4_0_259)"><path fill="#2970ff" d="M28.9531 11.6678H1.8564V14.458H28.9531V11.6678Z"/></g><path fill="#2970ff" d="M2.90709 15.364L15.418 16.2608L27.1806 16.403L27.8962 15.3562L15.3727 14.6313C15.2274 14.6891 3.05551 15.3047 2.90553 15.364"/><mask id="mask5_0_259" width="26" height="3" x="2" y="14" maskUnits="userSpaceOnUse" style="mask-type:luminance"><path fill="#fff" d="M2.90582 15.365L15.4168 16.2617L27.1794 16.4039L27.8949 15.3571L15.3715 14.6322C15.2262 14.69 3.05424 15.3056 2.90426 15.365"/></mask><g mask="url(#mask5_0_259)"><path fill="#2970ff" d="M27.8959 14.6321H2.90678V16.4054H27.8959V14.6321Z"/></g><path fill="#2970ff" d="M15.3749 17.4711C15.303 17.4993 12.6549 17.4915 9.98807 17.4836C7.2759 17.4743 4.54187 17.4665 4.46532 17.4961L15.4187 19.0475L25.3893 18.5773L26.3861 17.4352L15.3749 17.4711Z"/><mask id="mask6_0_259" width="23" height="3" x="4" y="17" maskUnits="userSpaceOnUse" style="mask-type:luminance"><path fill="#fff" d="M15.3755 17.4698C15.3036 17.4979 12.6555 17.4901 9.98864 17.4823C7.27647 17.4729 4.54243 17.4651 4.46588 17.4948L15.4192 19.0462L25.3899 18.5759L26.3866 17.4339L15.3755 17.4698Z"/></mask><g mask="url(#mask6_0_259)"><path fill="#2970ff" d="M26.3866 17.4339H4.46588V19.0446H26.3866V17.4339Z"/></g><path fill="#2970ff" d="M15.3753 20.3654C15.3035 20.3935 13.1569 20.2264 11.0071 20.0592C8.85114 19.8905 6.69047 19.7233 6.61548 19.753L15.4175 21.9402L22.5916 21.0638L24.2445 19.7046L15.3738 20.3654H15.3753Z"/><mask id="mask7_0_259" width="19" height="3" x="6" y="19" maskUnits="userSpaceOnUse" style="mask-type:luminance"><path fill="#fff" d="M15.3766 20.3669C15.3047 20.395 13.1581 20.2278 11.0084 20.0607C8.8524 19.8919 6.69173 19.7248 6.61674 19.7545L15.4188 21.9417L22.5929 21.0652L24.2458 19.706L15.375 20.3669H15.3766Z"/></mask><g mask="url(#mask7_0_259)"><path fill="#2970ff" d="M24.2458 19.706H6.61674V21.9417H24.2458V19.706Z"/></g><path fill="#2970ff" d="M15.3748 23.423C15.1592 23.373 14.5217 23.1621 9.99886 22.3685C12.6001 24.0511 15.4185 24.9994 15.4185 24.9994C15.4185 24.9994 17.6604 24.2964 20.7444 22.3685C17.1386 23.0496 15.3763 23.423 15.3748 23.423Z"/><mask id="mask8_0_259" width="12" height="3" x="9" y="22" maskUnits="userSpaceOnUse" style="mask-type:luminance"><path fill="#fff" d="M15.3739 23.4218C15.1583 23.3718 14.5209 23.1609 9.99798 22.3672C12.5992 24.0499 15.4176 24.9982 15.4176 24.9982C15.4176 24.9982 17.6595 24.2951 20.7435 22.3672C17.1377 23.0484 15.3754 23.4218 15.3739 23.4218Z"/></mask><g mask="url(#mask8_0_259)"><path fill="#2970ff" d="M21.742 22.3672H10.998V24.9982H21.742V22.3672Z"/></g></svg>