<svg xmlns="http://www.w3.org/2000/svg" width="72" height="69" fill="none" viewBox="0 0 72 69"><path fill="#fff" d="M35.8335 29.167C36.5499 29.1671 37.2252 29.4663 38.5757 30.0645L63.5396 41.1221C64.8202 41.6893 65.4609 41.9731 65.7222 42.5781C65.9833 43.1833 65.7588 43.8169 65.3091 45.083C63.8907 49.0761 60.5596 56.6122 55.8335 62.5C53.6113 63.6111 49.1662 65.834 47.4995 65.834C46.5411 65.8336 42.6584 64.1132 39.312 62.5264C37.6303 61.7289 36.7894 61.3295 35.979 61.3574C35.1687 61.3854 34.2915 61.8782 32.5376 62.8633C27.925 65.454 25.3059 65.7979 24.4663 65.834C24.3538 65.8388 24.2973 65.8414 24.2134 65.8408C24.1294 65.8402 24.0411 65.8344 23.8647 65.8242C21.2066 65.67 17.4385 63.57 15.8335 62.5C11.1073 56.6122 7.77634 49.0762 6.35791 45.083C5.90813 43.8168 5.68268 43.1833 5.94385 42.5781C6.20506 41.9731 6.84574 41.6894 8.12646 41.1221L33.0903 30.0645C34.441 29.4662 35.117 29.167 35.8335 29.167ZM37.0054 2.5C41.2086 2.5 43.3102 2.50044 44.728 3.75195C46.1458 5.00354 46.4069 7.08893 46.9282 11.2598L47.4995 15.834L24.1665 15.834L24.7378 11.2598C25.2591 7.08895 25.5202 5.00355 26.938 3.75195C28.3558 2.50037 30.4574 2.5 34.6606 2.5L37.0054 2.5Z" opacity="0.4"/><path fill="#fff" d="M37.1573 0C39.1291 -0.000114838 40.8405 4.29719e-05 42.2277 0.176758C43.7205 0.366948 45.155 0.793897 46.3829 1.87793C47.6109 2.96194 48.2122 4.33232 48.5861 5.79004C48.9334 7.14444 49.1453 8.84245 49.3898 10.7988L49.7521 13.6973C51.4179 13.9989 52.9334 14.5813 54.2218 15.7744C55.7085 17.1512 56.4079 18.8916 56.8156 20.8398C57.201 22.6818 57.3801 25.0085 57.5939 27.7881L58.2277 36.0342L64.5519 38.8359C64.5844 38.8503 64.6175 38.8653 64.6505 38.8799C65.2033 39.1244 65.8241 39.3991 66.3253 39.708C66.9318 40.0819 67.6126 40.6491 68.0177 41.5879C68.4153 42.5093 68.3748 43.3769 68.2316 44.0811C68.1157 44.6507 67.8936 45.2763 67.7003 45.8193C67.6883 45.853 67.6759 45.8869 67.6642 45.9199C66.4781 49.259 64.0019 55.0011 60.4777 60.3467C60.8299 60.4374 61.1733 60.5387 61.5011 60.6445C62.5779 60.9923 63.6922 61.4474 64.6945 61.8584L64.7911 61.8975C65.7934 62.3086 66.6796 62.6726 67.4825 62.9404C68.3457 63.2284 68.8661 63.317 69.1329 63.3135C70.5135 63.295 71.6476 64.3997 71.6661 65.7803C71.6846 67.1608 70.5808 68.2949 69.2003 68.3135C68.0639 68.3287 66.8889 68.0133 65.9005 67.6836C64.9327 67.3607 63.9038 66.9379 62.9581 66.5498C62.9042 66.5277 62.8503 66.5062 62.797 66.4844C61.7681 66.0624 60.8287 65.6817 59.964 65.4023C59.0767 65.1158 58.4563 65.0001 58.0558 65C57.7211 65 57.2399 65.1009 56.506 65.3896C55.9359 65.614 55.3642 65.8869 54.6837 66.2119C54.467 66.3154 54.2385 66.4239 53.9962 66.5381C52.1778 67.3949 49.6938 68.4938 46.8595 68.3135C44.6928 68.2999 42.4997 67.3251 40.8546 66.5938C40.7475 66.5461 40.6425 66.4993 40.5402 66.4541C38.5549 65.5766 37.1112 65 35.8331 65C34.5551 65 33.1121 65.5767 31.1271 66.4541C31.0247 66.4993 30.9198 66.5461 30.8126 66.5938C29.1474 67.3341 26.9203 68.3238 24.7277 68.3135C23.6 68.3232 22.4365 68.0106 21.4562 67.6836C20.4883 67.3607 19.4595 66.9379 18.5138 66.5498C18.4599 66.5277 18.406 66.5062 18.3527 66.4844C17.3238 66.0624 16.3844 65.6817 15.5197 65.4023C14.6325 65.1158 14.012 65.0001 13.6115 65C13.2768 65 12.7956 65.1009 12.0616 65.3896C11.4916 65.6139 10.9199 65.8869 10.2394 66.2119C10.0226 66.3154 9.79417 66.4239 9.55188 66.5381C7.71223 67.4049 5.19126 68.5196 2.31555 68.3066C0.938612 68.2047 -0.0950311 67.0058 0.00695801 65.6289C0.109036 64.2521 1.30781 63.2183 2.68469 63.3203C4.12378 63.4269 5.57535 62.8853 7.42102 62.0156C7.59908 61.9317 7.78501 61.8426 7.97668 61.751C8.68871 61.4105 9.47888 61.0321 10.2306 60.7363C10.5408 60.6143 10.8707 60.4963 11.2159 60.3906C7.67654 55.0328 5.19136 49.268 4.00208 45.9199C3.99034 45.8869 3.97794 45.853 3.96594 45.8193C3.7727 45.2763 3.55061 44.6508 3.43469 44.0811C3.29144 43.3769 3.25092 42.5094 3.64856 41.5879C4.05368 40.6491 4.73443 40.0819 5.34094 39.708C5.84218 39.3991 6.46295 39.1244 7.01575 38.8799C7.04874 38.8653 7.08191 38.8503 7.11438 38.8359L13.4386 36.0342L14.0734 27.7881C14.2871 25.0085 14.4653 22.6818 14.8507 20.8398C15.2584 18.8915 15.9586 17.1513 17.4454 15.7744C18.7335 14.5817 20.248 13.9989 21.9132 13.6973L22.2579 10.9502C22.2642 10.8998 22.2702 10.8489 22.2765 10.7988C22.5209 8.84243 22.7328 7.14445 23.0802 5.79004C23.4541 4.33241 24.0556 2.96192 25.2833 1.87793C26.5113 0.793885 27.9467 0.366945 29.4396 0.176758C30.8267 8.60874e-05 32.5383 -0.000114829 34.5099 0L37.1573 0ZM35.8243 31.668C35.8193 31.6685 35.8074 31.6698 35.7872 31.6738C35.7445 31.6824 35.6644 31.7023 35.5255 31.751C35.2148 31.8598 34.8135 32.0357 34.1027 32.3506L9.13879 43.4082C8.89172 43.5176 8.69026 43.6068 8.51672 43.6865C8.57112 43.8452 8.63514 44.0269 8.71301 44.2461C10.0763 48.084 13.2756 55.2973 17.7365 60.877C18.5949 61.1821 19.4578 61.5335 20.2501 61.8584L20.3468 61.8975C21.3491 62.3086 22.2352 62.6726 23.0382 62.9404C23.9015 63.2284 24.4218 63.317 24.6886 63.3135H24.7433C25.7687 63.322 27.041 62.7934 29.1056 61.8809C29.1376 61.8667 29.1699 61.8522 29.2023 61.8379C30.9717 61.0554 33.3581 60 35.8331 60C38.3081 60 40.6946 61.0554 42.464 61.8379L42.5607 61.8809C44.625 62.7934 45.8977 63.3219 46.923 63.3135C46.9916 63.3129 47.0606 63.3152 47.129 63.3203C48.5681 63.4269 50.0197 62.8853 51.8654 62.0156C52.0434 61.9317 52.2294 61.8426 52.421 61.751C52.8408 61.5502 53.2882 61.337 53.7384 61.1348C53.7829 61.0666 53.8319 61.0003 53.8839 60.9355C58.369 55.348 61.5853 48.0973 62.9532 44.2461C63.0311 44.0269 63.0951 43.8452 63.1495 43.6865C62.976 43.6068 62.7745 43.5176 62.5275 43.4082L37.5636 32.3506C36.8529 32.0358 36.4515 31.8598 36.1407 31.751C36.0018 31.7023 35.9217 31.6824 35.879 31.6738C35.8587 31.6697 35.847 31.6685 35.8419 31.668L35.8331 31.667L35.8243 31.668ZM29.8468 18.334C26.8507 18.334 24.846 18.3382 23.3409 18.5342C21.9071 18.7209 21.273 19.0451 20.8429 19.4434C20.4128 19.8416 20.0414 20.4489 19.7452 21.8643C19.4344 23.3499 19.2758 25.3484 19.046 28.3359L18.63 33.7344L32.0782 27.7783C32.1653 27.7397 32.2528 27.7005 32.3409 27.6611C33.4161 27.181 34.5682 26.667 35.8331 26.667C37.0978 26.667 38.2493 27.1811 39.3243 27.6611C39.4126 27.7005 39.5008 27.7397 39.588 27.7783L53.0363 33.7344L52.6212 28.3359C52.3914 25.3484 52.2328 23.3499 51.922 21.8643C51.6259 20.4491 51.2543 19.8416 50.8243 19.4434C50.3943 19.0451 49.7601 18.7209 48.3263 18.5342C46.8212 18.3382 44.8159 18.334 41.8195 18.334L29.8468 18.334ZM34.6613 5C32.4939 5 31.1049 5.00509 30.0714 5.13672C29.1083 5.25941 28.7827 5.45843 28.5929 5.62598C28.4031 5.79353 28.1652 6.0917 27.924 7.03223C27.6651 8.04145 27.4877 9.41949 27.2189 11.5703L26.9972 13.3438C27.8392 13.3342 28.7342 13.334 29.6818 13.334L41.9845 13.334C42.9319 13.334 43.8272 13.3342 44.6691 13.3438L44.4474 11.5703C44.1785 9.41949 44.0021 8.04145 43.7433 7.03223C43.5021 6.09179 43.2641 5.79356 43.0743 5.62598C42.8845 5.45842 42.559 5.25943 41.5958 5.13672C40.5623 5.00506 39.1733 5 37.006 5H34.6613Z"/></svg>