<svg xmlns="http://www.w3.org/2000/svg" width="999" height="811" fill="none" viewBox="0 0 999 811"><g opacity="0.1"><path fill="#366ed9" fill-opacity="0.09" d="M0.00244141 205.462L500.212 52.8605L999.003 244.081V206.475L498.793 0C494.079 1.87521 4.91888 203.536 0.00244141 205.462Z"/><mask id="mask0_68_204" width="1000" height="245" x="0" y="0" maskUnits="userSpaceOnUse" style="mask-type:luminance"><path fill="#fff" d="M0.00488281 205.462L500.214 52.8605L999.005 244.081V206.475L498.795 0C494.082 1.87521 4.92132 203.536 0.00488281 205.462Z"/></mask><g mask="url(#mask0_68_204)"><path fill="#366ed9" fill-opacity="0.09" d="M998.953 0H0.00488281V244.081H998.953V0Z"/></g><path fill="#366ed9" fill-opacity="0.09" d="M6.61963 267.846L500.19 145.957L988.134 301.448L994.115 267.542L498.771 93.0967C494.057 94.9719 11.4854 265.869 6.61963 267.846Z"/><mask id="mask1_68_204" width="989" height="209" x="6" y="93" maskUnits="userSpaceOnUse" style="mask-type:luminance"><path fill="#fff" d="M6.62256 267.845L500.193 145.956L988.137 301.447L994.118 267.541L498.774 93.0959C494.06 94.9712 11.4883 265.868 6.62256 267.845Z"/></mask><g mask="url(#mask1_68_204)"><path fill="#366ed9" fill-opacity="0.09" d="M994.118 93.0959H6.62256V301.447H994.118V93.0959Z"/></g><path fill="#366ed9" fill-opacity="0.09" d="M17.5195 324.918L500.192 241.396L972.221 357.101L982.105 323.499L498.773 188.484C494.059 190.36 22.3853 322.942 17.5195 324.918Z"/><mask id="mask2_68_204" width="966" height="170" x="17" y="188" maskUnits="userSpaceOnUse" style="mask-type:luminance"><path fill="#fff" d="M17.5215 324.921L500.194 241.398L972.223 357.103L982.107 323.502L498.775 188.487C494.061 190.362 22.3872 322.944 17.5215 324.921Z"/></mask><g mask="url(#mask2_68_204)"><path fill="#366ed9" fill-opacity="0.09" d="M982.107 188.531H17.5215V357.147H982.107V188.531Z"/></g><path fill="#366ed9" fill-opacity="0.09" d="M34.8232 380.415L500.212 335.968L951.409 412.142L964.384 378.793L498.793 283.107C494.079 284.982 39.7397 378.438 34.8232 380.364"/><mask id="mask3_68_204" width="931" height="130" x="34" y="283" maskUnits="userSpaceOnUse" style="mask-type:luminance"><path fill="#fff" d="M34.8267 380.412L500.215 335.964L951.412 412.138L964.388 378.79L498.796 283.104C494.083 284.979 39.7431 378.435 34.8267 380.361"/></mask><g mask="url(#mask3_68_204)"><path fill="#366ed9" fill-opacity="0.09" d="M964.388 283.147H34.8267V412.181H964.388V283.147Z"/></g><path fill="#366ed9" fill-opacity="0.09" d="M60.1885 437.903L500.184 431.315L922.288 469.021L939.268 436.383L498.765 378.505C494.052 380.38 65.1049 435.977 60.1885 437.954"/><mask id="mask4_68_204" width="880" height="92" x="60" y="378" maskUnits="userSpaceOnUse" style="mask-type:luminance"><path fill="#fff" d="M60.186 437.908L500.182 431.319L922.286 469.026L939.265 436.388L498.763 378.51C494.049 380.385 65.1025 435.982 60.186 437.959"/></mask><g mask="url(#mask4_68_204)"><path fill="#366ed9" fill-opacity="0.09" d="M939.265 378.51H60.186V469.026H939.265V378.51Z"/></g><path fill="#366ed9" fill-opacity="0.09" d="M94.3437 498.384L500.228 527.475L881.835 532.086L905.048 498.13L498.758 474.614C494.045 476.489 99.1587 496.458 94.293 498.384"/><mask id="mask5_68_204" width="812" height="59" x="94" y="474" maskUnits="userSpaceOnUse" style="mask-type:luminance"><path fill="#fff" d="M94.3408 498.388L500.225 527.479L881.832 532.091L905.045 498.134L498.755 474.618C494.042 476.494 99.1558 496.462 94.29 498.388"/></mask><g mask="url(#mask5_68_204)"><path fill="#366ed9" fill-opacity="0.09" d="M905.038 474.618H94.3335V532.142H905.038V474.618Z"/></g><path fill="#366ed9" fill-opacity="0.09" d="M498.786 566.794C496.454 567.706 410.543 567.452 324.024 567.199C236.035 566.895 147.337 566.641 144.853 567.604L500.205 617.931L823.676 602.676L856.013 565.628L498.786 566.794Z"/><mask id="mask6_68_204" width="713" height="53" x="144" y="565" maskUnits="userSpaceOnUse" style="mask-type:luminance"><path fill="#fff" d="M498.787 566.796C496.456 567.709 410.545 567.455 324.026 567.201C236.037 566.897 147.338 566.644 144.854 567.607L500.206 617.933L823.678 602.678L856.015 565.63L498.787 566.796Z"/></mask><g mask="url(#mask6_68_204)"><path fill="#366ed9" fill-opacity="0.09" d="M856.015 565.63H144.854V617.883H856.015V565.63Z"/></g><path fill="#366ed9" fill-opacity="0.09" d="M498.778 660.612C496.446 661.524 426.805 656.101 357.063 650.679C287.117 645.205 217.02 639.782 214.587 640.745L500.146 711.699L732.891 683.267L786.516 639.174L498.727 660.612H498.778Z"/><mask id="mask7_68_204" width="573" height="73" x="214" y="639" maskUnits="userSpaceOnUse" style="mask-type:luminance"><path fill="#fff" d="M498.773 660.617C496.442 661.529 426.801 656.106 357.058 650.683C287.113 645.21 217.016 639.787 214.583 640.75L500.142 711.704L732.887 683.271L786.511 639.179L498.723 660.617H498.773Z"/></mask><g mask="url(#mask7_68_204)"><path fill="#366ed9" fill-opacity="0.09" d="M786.511 639.179H214.583V711.704H786.511V639.179Z"/></g><path fill="#366ed9" fill-opacity="0.09" d="M498.81 759.869C491.816 758.247 471.136 751.405 324.403 725.659C408.794 780.242 500.229 811.006 500.229 811.006C500.229 811.006 572.962 788.199 673.014 725.659C556.033 747.756 498.861 759.869 498.81 759.869Z"/><mask id="mask8_68_204" width="350" height="87" x="324" y="725" maskUnits="userSpaceOnUse" style="mask-type:luminance"><path fill="#fff" d="M498.806 759.872C491.812 758.25 471.132 751.408 324.399 725.662C408.79 780.246 500.225 811.01 500.225 811.01C500.225 811.01 572.958 788.203 673.01 725.662C556.03 747.759 498.857 759.872 498.806 759.872Z"/></mask><g mask="url(#mask8_68_204)"><path fill="#366ed9" fill-opacity="0.09" d="M672.96 725.662H324.399V811.01H672.96V725.662Z"/></g></g></svg>