<svg width="185" height="43" viewBox="0 0 185 43" fill="none" xmlns="http://www.w3.org/2000/svg">
<path d="M0 10.8162L26.3298 2.78307L52.5848 12.8492V10.8696L26.2551 0.000427246C26.007 0.0991405 0.258789 10.7148 0 10.8162Z" fill="white"/>
<mask id="mask0_0_1543" style="mask-type:luminance" maskUnits="userSpaceOnUse" x="0" y="0" width="53" height="13">
<path d="M0 10.8166L26.3298 2.78345L52.5848 12.8495V10.8699L26.2551 0.000801086C26.007 0.0995143 0.258789 10.7152 0 10.8166Z" fill="white"/>
</mask>
<g mask="url(#mask0_0_1543)">
<path d="M52.5821 0.000801086H0V12.8495H52.5821V0.000801086Z" fill="white"/>
</g>
<path d="M0.349609 14.1013L26.3299 7.68489L52.0141 15.8701L52.3289 14.0853L26.2552 4.90224C26.0071 5.00095 0.605731 13.9972 0.349609 14.1013Z" fill="white"/>
<mask id="mask1_0_1543" style="mask-type:luminance" maskUnits="userSpaceOnUse" x="0" y="4" width="53" height="12">
<path d="M0.350952 14.1027L26.3312 7.68633L52.0154 15.8715L52.3302 14.0867L26.2566 4.90368C26.0084 5.00239 0.607073 13.9987 0.350952 14.1027Z" fill="white"/>
</mask>
<g mask="url(#mask1_0_1543)">
<path d="M52.3302 4.90368H0.350952V15.8715H52.3302V4.90368Z" fill="white"/>
</g>
<path d="M0.92395 17.1028L26.3306 12.7061L51.1771 18.797L51.6973 17.0281L26.2559 9.92078C26.0078 10.0195 1.18007 16.9988 0.92395 17.1028Z" fill="white"/>
<mask id="mask2_0_1543" style="mask-type:luminance" maskUnits="userSpaceOnUse" x="0" y="9" width="52" height="10">
<path d="M0.925781 17.1014L26.3325 12.7047L51.1789 18.7956L51.6991 17.0267L26.2578 9.91939C26.0096 10.0181 1.1819 16.9974 0.925781 17.1014Z" fill="white"/>
</mask>
<g mask="url(#mask2_0_1543)">
<path d="M51.6991 9.92414H0.925781V18.8003H51.6991V9.92414Z" fill="white"/>
</g>
<path d="M1.83459 20.0254L26.3315 17.6856L50.0814 21.6955L50.7644 19.94L26.2568 14.9029C26.0087 15.0016 2.09338 19.9213 1.83459 20.0227" fill="white"/>
<mask id="mask3_0_1543" style="mask-type:luminance" maskUnits="userSpaceOnUse" x="1" y="14" width="50" height="8">
<path d="M1.83618 20.0246L26.3331 17.6848L50.083 21.6947L50.7659 19.9392L26.2584 14.9021C26.0103 15.0008 2.09497 19.9205 1.83618 20.0219" fill="white"/>
</mask>
<g mask="url(#mask3_0_1543)">
<path d="M50.7659 14.9069H1.83618V21.6994H50.7659V14.9069Z" fill="white"/>
</g>
<path d="M3.16907 23.0516L26.3293 22.7048L48.5478 24.6897L49.4416 22.9716L26.2546 19.9248C26.0065 20.0235 3.42786 22.9502 3.16907 23.0543" fill="white"/>
<mask id="mask4_0_1543" style="mask-type:luminance" maskUnits="userSpaceOnUse" x="3" y="19" width="47" height="6">
<path d="M3.16992 23.0516L26.3302 22.7048L48.5487 24.6898L49.4424 22.9716L26.2555 19.9248C26.0074 20.0235 3.42871 22.9503 3.16992 23.0543" fill="white"/>
</mask>
<g mask="url(#mask4_0_1543)">
<path d="M49.4424 19.9248H3.16992V24.6898H49.4424V19.9248Z" fill="white"/>
</g>
<path d="M4.9641 26.2369L26.3288 27.7683L46.4157 28.0111L47.6376 26.2235L26.2515 24.9856C26.0034 25.0843 5.21755 26.1355 4.96143 26.2369" fill="white"/>
<mask id="mask5_0_1543" style="mask-type:luminance" maskUnits="userSpaceOnUse" x="4" y="24" width="44" height="5">
<path d="M4.96227 26.2385L26.327 27.7699L46.4138 28.0126L47.6357 26.2251L26.2496 24.9872C26.0015 25.0859 5.21572 26.1371 4.95959 26.2385" fill="white"/>
</mask>
<g mask="url(#mask5_0_1543)">
<path d="M47.6378 24.9872H4.96436V28.0153H47.6378V24.9872Z" fill="white"/>
</g>
<path d="M26.2555 29.8349C26.1328 29.8829 21.6106 29.8696 17.0565 29.8562C12.425 29.8402 7.75609 29.8269 7.62537 29.8776L26.3302 32.5268L43.3569 31.7238L45.0591 29.7735L26.2555 29.8349Z" fill="white"/>
<mask id="mask6_0_1543" style="mask-type:luminance" maskUnits="userSpaceOnUse" x="7" y="29" width="39" height="4">
<path d="M26.2564 29.8329C26.1336 29.8809 21.6115 29.8676 17.0573 29.8543C12.4258 29.8383 7.75695 29.8249 7.62622 29.8756L26.3311 32.5249L43.3578 31.7218L45.0599 29.7716L26.2564 29.8329Z" fill="white"/>
</mask>
<g mask="url(#mask6_0_1543)">
<path d="M45.0599 29.7716H7.62622V32.5222H45.0599V29.7716Z" fill="white"/>
</g>
<path d="M26.2562 34.7777C26.1335 34.8257 22.4677 34.5402 18.7967 34.2548C15.1149 33.9666 11.4252 33.6812 11.2971 33.7319L26.3282 37.467L38.5793 35.9702L41.402 33.6491L26.2535 34.7777H26.2562Z" fill="white"/>
<mask id="mask7_0_1543" style="mask-type:luminance" maskUnits="userSpaceOnUse" x="11" y="33" width="31" height="5">
<path d="M26.258 34.7798C26.1353 34.8279 22.4696 34.5424 18.7985 34.2569C15.1167 33.9688 11.427 33.6833 11.299 33.734L26.33 37.4691L38.5812 35.9724L41.4038 33.6513L26.2553 34.7798H26.258Z" fill="white"/>
</mask>
<g mask="url(#mask7_0_1543)">
<path d="M41.4038 33.6513H11.299V37.4691H41.4038V33.6513Z" fill="white"/>
</g>
<path d="M26.2549 39.9987C25.8868 39.9133 24.7982 39.5531 17.0746 38.1978C21.5167 41.0712 26.3296 42.6906 26.3296 42.6906C26.3296 42.6906 30.1581 41.49 35.4246 38.1978C29.267 39.361 26.2576 39.9987 26.2549 39.9987Z" fill="white"/>
<mask id="mask8_0_1543" style="mask-type:luminance" maskUnits="userSpaceOnUse" x="17" y="38" width="19" height="5">
<path d="M26.2537 39.997C25.8855 39.9116 24.797 39.5515 17.0734 38.1962C21.5155 41.0695 26.3284 42.689 26.3284 42.689C26.3284 42.689 30.1569 41.4884 35.4234 38.1962C29.2658 39.3594 26.2564 39.997 26.2537 39.997Z" fill="white"/>
</mask>
<g mask="url(#mask8_0_1543)">
<path d="M35.4207 38.1962H17.0734V42.689H35.4207V38.1962Z" fill="white"/>
</g>
<path d="M64.1205 15.1091H68.7493C69.43 15.1091 69.9972 14.92 70.451 14.5419C70.9048 14.1486 71.1317 13.5889 71.1317 12.8628C71.1317 12.046 70.9275 11.4712 70.5191 11.1384C70.1107 10.8056 69.5207 10.6392 68.7493 10.6392H64.1205V15.1091ZM61.2843 8.32481H69.1577C70.6098 8.32481 71.7746 8.65759 72.6519 9.32317C73.5293 9.98874 73.968 10.9947 73.968 12.3409C73.968 13.1578 73.7638 13.8612 73.3553 14.4511C72.962 15.0259 72.3948 15.4722 71.6536 15.7898V15.8352C72.6519 16.047 73.4083 16.5235 73.9226 17.2647C74.4369 17.9907 74.694 18.9059 74.694 20.0102C74.694 20.6455 74.5806 21.243 74.3537 21.8027C74.1268 22.3472 73.7713 22.8237 73.2873 23.2321C72.8032 23.6254 72.183 23.9431 71.4267 24.1851C70.6704 24.412 69.7703 24.5255 68.7266 24.5255H61.2843V8.32481ZM64.1205 22.2111H69.135C69.9972 22.2111 70.6628 21.9918 71.1317 21.5531C71.6158 21.0993 71.8578 20.464 71.8578 19.6471C71.8578 18.8454 71.6158 18.2328 71.1317 17.8092C70.6628 17.3706 69.9972 17.1512 69.135 17.1512H64.1205V22.2111ZM77.2603 8.32481H80.0966V22.0749H88.333V24.5255H77.2603V8.32481ZM90.1078 8.32481H92.9441V17.7638C92.9441 18.3084 92.9668 18.8605 93.0121 19.4202C93.0727 19.9799 93.2239 20.4866 93.4659 20.9404C93.7231 21.3791 94.1013 21.7422 94.6004 22.0296C95.1148 22.317 95.8333 22.4607 96.756 22.4607C97.6787 22.4607 98.3897 22.317 98.8889 22.0296C99.4032 21.7422 99.7813 21.3791 100.023 20.9404C100.281 20.4866 100.432 19.9799 100.477 19.4202C100.538 18.8605 100.568 18.3084 100.568 17.7638V8.32481H103.404V18.6941C103.404 19.7379 103.245 20.6455 102.928 21.4169C102.61 22.1884 102.156 22.8388 101.566 23.3683C100.991 23.8826 100.296 24.2683 99.4788 24.5255C98.662 24.7826 97.7544 24.9112 96.756 24.9112C95.7576 24.9112 94.85 24.7826 94.0332 24.5255C93.2164 24.2683 92.513 23.8826 91.923 23.3683C91.3482 22.8388 90.902 22.1884 90.5843 21.4169C90.2667 20.6455 90.1078 19.7379 90.1078 18.6941V8.32481ZM106.664 8.32481H118.327V10.7753H109.501V15.0184H117.669V17.3327H109.501V22.0749H118.486V24.5255H106.664V8.32481ZM127.271 8.32481H130.108V22.0749H138.344V24.5255H127.271V8.32481ZM140.3 8.32481H143.137V24.5255H140.3V8.32481ZM146.502 8.32481H149.497L156.894 20.2597H156.939V8.32481H159.64V24.5255H156.644L149.27 12.6132H149.202V24.5255H146.502V8.32481ZM162.99 8.32481H174.653V10.7753H165.827V15.0184H173.995V17.3327H165.827V22.0749H174.812V24.5255H162.99V8.32481Z" fill="white"/>
<path d="M60.3562 27.8767H65.1447V28.6935H61.3261V31.0111H64.675V31.8279H61.3261V35.1666H60.3562V27.8767ZM66.709 32.5324C66.709 32.8524 66.7499 33.1382 66.8316 33.3901C66.9201 33.6351 67.0392 33.8427 67.1889 34.0129C67.3387 34.1762 67.5122 34.3022 67.7096 34.3907C67.9138 34.4791 68.1282 34.5234 68.3529 34.5234C68.5775 34.5234 68.7885 34.4791 68.9859 34.3907C69.1901 34.3022 69.3671 34.1762 69.5168 34.0129C69.6665 33.8427 69.7823 33.6351 69.8639 33.3901C69.9524 33.1382 69.9967 32.8524 69.9967 32.5324C69.9967 32.2125 69.9524 31.93 69.8639 31.685C69.7823 31.4332 69.6665 31.2222 69.5168 31.052C69.3671 30.8818 69.1901 30.7525 68.9859 30.664C68.7885 30.5755 68.5775 30.5313 68.3529 30.5313C68.1282 30.5313 67.9138 30.5755 67.7096 30.664C67.5122 30.7525 67.3387 30.8818 67.1889 31.052C67.0392 31.2222 66.9201 31.4332 66.8316 31.685C66.7499 31.93 66.709 32.2125 66.709 32.5324ZM65.7901 32.5324C65.7901 32.1445 65.8446 31.7837 65.9535 31.4502C66.0624 31.1098 66.2258 30.8172 66.4436 30.5721C66.6614 30.3203 66.9303 30.1229 67.2502 29.9799C67.5701 29.837 67.9377 29.7655 68.3529 29.7655C68.7749 29.7655 69.1424 29.837 69.4555 29.9799C69.7755 30.1229 70.0443 30.3203 70.2621 30.5721C70.4799 30.8172 70.6433 31.1098 70.7522 31.4502C70.8611 31.7837 70.9156 32.1445 70.9156 32.5324C70.9156 32.9204 70.8611 33.2812 70.7522 33.6147C70.6433 33.9482 70.4799 34.2409 70.2621 34.4928C70.0443 34.7378 69.7755 34.9318 69.4555 35.0747C69.1424 35.2109 68.7749 35.2789 68.3529 35.2789C67.9377 35.2789 67.5701 35.2109 67.2502 35.0747C66.9303 34.9318 66.6614 34.7378 66.4436 34.4928C66.2258 34.2409 66.0624 33.9482 65.9535 33.6147C65.8446 33.2812 65.7901 32.9204 65.7901 32.5324ZM71.9082 29.888H72.725V31.0009H72.7454C72.9564 30.5721 73.2151 30.2556 73.5214 30.0514C73.8277 29.8472 74.2156 29.7519 74.6853 29.7655V30.6844C74.3382 30.6844 74.0421 30.7321 73.797 30.8274C73.552 30.9227 73.3546 31.0622 73.2048 31.246C73.0551 31.4298 72.9462 31.6544 72.8781 31.9198C72.8101 32.1785 72.776 32.478 72.776 32.8183V35.1666H71.9082V29.888ZM78.885 31.5216C78.885 31.8892 78.9326 32.2534 79.0279 32.6141C79.1232 32.9681 79.2729 33.288 79.4771 33.5739C79.6813 33.8597 79.9434 34.0912 80.2633 34.2681C80.5832 34.4383 80.9644 34.5234 81.4068 34.5234C81.8493 34.5234 82.2304 34.4383 82.5503 34.2681C82.8703 34.0912 83.1323 33.8597 83.3365 33.5739C83.5407 33.288 83.6905 32.9681 83.7858 32.6141C83.881 32.2534 83.9287 31.8892 83.9287 31.5216C83.9287 31.1541 83.881 30.7933 83.7858 30.4394C83.6905 30.0786 83.5407 29.7553 83.3365 29.4694C83.1323 29.1836 82.8703 28.9555 82.5503 28.7854C82.2304 28.6084 81.8493 28.5199 81.4068 28.5199C80.9644 28.5199 80.5832 28.6084 80.2633 28.7854C79.9434 28.9555 79.6813 29.1836 79.4771 29.4694C79.2729 29.7553 79.1232 30.0786 79.0279 30.4394C78.9326 30.7933 78.885 31.1541 78.885 31.5216ZM77.915 31.5216C77.915 31.0248 77.9865 30.5483 78.1294 30.0922C78.2792 29.6294 78.5004 29.221 78.7931 28.867C79.0857 28.5131 79.4499 28.2306 79.8855 28.0196C80.3212 27.8086 80.8283 27.7031 81.4068 27.7031C81.9854 27.7031 82.4925 27.8086 82.9281 28.0196C83.3637 28.2306 83.7279 28.5131 84.0206 28.867C84.3133 29.221 84.5311 29.6294 84.674 30.0922C84.8238 30.5483 84.8986 31.0248 84.8986 31.5216C84.8986 32.0185 84.8238 32.4984 84.674 32.9613C84.5311 33.4173 84.3133 33.8223 84.0206 34.1762C83.7279 34.5302 83.3637 34.8127 82.9281 35.0237C82.4925 35.2279 81.9854 35.33 81.4068 35.33C80.8283 35.33 80.3212 35.2279 79.8855 35.0237C79.4499 34.8127 79.0857 34.5302 78.7931 34.1762C78.5004 33.8223 78.2792 33.4173 78.1294 32.9613C77.9865 32.4984 77.915 32.0185 77.915 31.5216ZM89.5214 31.5829C89.4533 31.2494 89.3104 30.9907 89.0926 30.8069C88.8747 30.6232 88.5821 30.5313 88.2145 30.5313C87.9014 30.5313 87.6393 30.5891 87.4283 30.7048C87.2173 30.8206 87.0472 30.9737 86.9178 31.1643C86.7953 31.3549 86.7068 31.5761 86.6524 31.8279C86.5979 32.073 86.5707 32.3282 86.5707 32.5937C86.5707 32.8387 86.5979 33.077 86.6524 33.3084C86.7136 33.5398 86.8055 33.7474 86.928 33.9312C87.0506 34.1082 87.2105 34.2511 87.4079 34.36C87.6053 34.4689 87.8401 34.5234 88.1124 34.5234C88.5412 34.5234 88.8747 34.4111 89.113 34.1865C89.358 33.9618 89.5078 33.6453 89.5622 33.2369H90.4505C90.3552 33.8904 90.1102 34.3941 89.7154 34.748C89.3274 35.102 88.7965 35.2789 88.1226 35.2789C87.721 35.2789 87.3637 35.2143 87.0506 35.0849C86.7443 34.9556 86.4856 34.7718 86.2746 34.5336C86.0704 34.2954 85.9138 34.0129 85.8049 33.6862C85.7028 33.3526 85.6518 32.9885 85.6518 32.5937C85.6518 32.1989 85.7028 31.8314 85.8049 31.491C85.907 31.1439 86.0602 30.8444 86.2644 30.5925C86.4754 30.3339 86.7375 30.1331 87.0506 29.9901C87.3637 29.8404 87.7278 29.7655 88.143 29.7655C88.4425 29.7655 88.7216 29.803 88.9802 29.8778C89.2457 29.9459 89.4771 30.0548 89.6745 30.2046C89.8787 30.3543 90.0455 30.5449 90.1748 30.7763C90.3041 31.0009 90.3858 31.2698 90.4199 31.5829H89.5214ZM95.0869 32.0219C95.0733 31.8177 95.0257 31.6237 94.944 31.44C94.8691 31.2562 94.7636 31.0996 94.6275 30.9703C94.4982 30.8342 94.3416 30.7287 94.1578 30.6538C93.9809 30.5721 93.7835 30.5313 93.5657 30.5313C93.341 30.5313 93.1368 30.5721 92.9531 30.6538C92.7761 30.7287 92.6229 30.8342 92.4936 30.9703C92.3643 31.1064 92.2622 31.2664 92.1873 31.4502C92.1124 31.6272 92.0682 31.8177 92.0546 32.0219H95.0869ZM95.9242 33.4922C95.8085 34.0844 95.5532 34.5302 95.1584 34.8297C94.7636 35.1292 94.2667 35.2789 93.6678 35.2789C93.2457 35.2789 92.8782 35.2109 92.5651 35.0747C92.2588 34.9386 92.0001 34.748 91.7891 34.503C91.5781 34.2579 91.4182 33.9652 91.3092 33.6249C91.2071 33.2846 91.1493 32.9136 91.1357 32.512C91.1357 32.1104 91.1969 31.7429 91.3195 31.4093C91.442 31.0758 91.6121 30.7865 91.83 30.5415C92.0546 30.2964 92.3166 30.1059 92.6161 29.9697C92.9224 29.8336 93.256 29.7655 93.6167 29.7655C94.0864 29.7655 94.4743 29.8642 94.7806 30.0616C95.0938 30.2522 95.3422 30.4972 95.526 30.7967C95.7166 31.0962 95.8459 31.423 95.914 31.7769C95.9888 32.1308 96.0195 32.4678 96.0058 32.7877H92.0546C92.0478 33.0191 92.075 33.2403 92.1363 33.4513C92.1975 33.6555 92.2962 33.8393 92.4323 34.0027C92.5685 34.1592 92.742 34.2852 92.9531 34.3804C93.1641 34.4757 93.4125 34.5234 93.6984 34.5234C94.0659 34.5234 94.3654 34.4383 94.5969 34.2681C94.8351 34.098 94.9917 33.8393 95.0665 33.4922H95.9242ZM101.582 35.1462C101.432 35.2347 101.224 35.2789 100.959 35.2789C100.734 35.2789 100.554 35.2177 100.418 35.0951C100.288 34.9658 100.224 34.7582 100.224 34.4723C99.9855 34.7582 99.7064 34.9658 99.3865 35.0951C99.0734 35.2177 98.733 35.2789 98.3655 35.2789C98.1272 35.2789 97.8992 35.2517 97.6814 35.1972C97.4704 35.1428 97.2866 35.0577 97.1301 34.942C96.9735 34.8263 96.8476 34.6765 96.7523 34.4928C96.6638 34.3022 96.6196 34.0741 96.6196 33.8087C96.6196 33.5092 96.6706 33.2642 96.7727 33.0736C96.8748 32.883 97.0075 32.7298 97.1709 32.6141C97.3411 32.4916 97.5317 32.3997 97.7427 32.3384C97.9605 32.2772 98.1817 32.2261 98.4063 32.1853C98.6445 32.1377 98.8692 32.1036 99.0802 32.0832C99.298 32.056 99.4886 32.0219 99.6519 31.9811C99.8153 31.9335 99.9446 31.8688 100.04 31.7871C100.135 31.6986 100.183 31.5727 100.183 31.4093C100.183 31.2188 100.145 31.0656 100.071 30.9499C100.002 30.8342 99.9106 30.7457 99.7949 30.6844C99.686 30.6232 99.56 30.5823 99.4171 30.5619C99.281 30.5415 99.1448 30.5313 99.0087 30.5313C98.6411 30.5313 98.3348 30.6027 98.0898 30.7457C97.8448 30.8818 97.712 31.1439 97.6916 31.5319H96.8238C96.8374 31.2051 96.9054 30.9295 97.028 30.7048C97.1505 30.4802 97.3138 30.2999 97.518 30.1637C97.7222 30.0208 97.9537 29.9187 98.2123 29.8574C98.4778 29.7962 98.7603 29.7655 99.0598 29.7655C99.298 29.7655 99.5328 29.7825 99.7642 29.8166C100.002 29.8506 100.217 29.9221 100.407 30.031C100.598 30.1331 100.751 30.2794 100.867 30.47C100.983 30.6606 101.04 30.909 101.04 31.2153V33.9312C101.04 34.1354 101.051 34.2852 101.071 34.3804C101.098 34.4757 101.18 34.5234 101.316 34.5234C101.391 34.5234 101.48 34.5064 101.582 34.4723V35.1462ZM100.173 32.4405C100.064 32.5222 99.9208 32.5835 99.7438 32.6243C99.5668 32.6584 99.3797 32.689 99.1823 32.7162C98.9917 32.7366 98.7977 32.7639 98.6003 32.7979C98.4029 32.8251 98.2259 32.8728 98.0694 32.9408C97.9128 33.0089 97.7835 33.1076 97.6814 33.2369C97.5861 33.3594 97.5385 33.5296 97.5385 33.7474C97.5385 33.8904 97.5657 34.0129 97.6201 34.115C97.6814 34.2103 97.7563 34.2886 97.8448 34.3498C97.9401 34.4111 98.049 34.4553 98.1715 34.4825C98.294 34.5098 98.4233 34.5234 98.5595 34.5234C98.8453 34.5234 99.0904 34.486 99.2946 34.4111C99.4988 34.3294 99.6655 34.2307 99.7949 34.115C99.9242 33.9925 100.019 33.8631 100.081 33.727C100.142 33.5841 100.173 33.4513 100.173 33.3288V32.4405ZM102.389 29.888H103.206V30.7253H103.227C103.587 30.0854 104.159 29.7655 104.942 29.7655C105.289 29.7655 105.578 29.8132 105.81 29.9085C106.041 30.0038 106.228 30.1365 106.371 30.3067C106.514 30.4768 106.613 30.681 106.667 30.9193C106.729 31.1507 106.759 31.4093 106.759 31.6952V35.1666H105.891V31.5931C105.891 31.2664 105.796 31.0077 105.605 30.8172C105.415 30.6266 105.153 30.5313 104.819 30.5313C104.554 30.5313 104.322 30.5721 104.125 30.6538C103.934 30.7355 103.774 30.8512 103.645 31.0009C103.516 31.1507 103.417 31.3277 103.349 31.5319C103.288 31.7293 103.257 31.9471 103.257 32.1853V35.1666H102.389V29.888ZM111.047 27.8767H115.836V28.6935H112.017V31.0111H115.366V31.8279H112.017V35.1666H111.047V27.8767ZM116.736 29.888H117.553V31.0009H117.574C117.785 30.5721 118.043 30.2556 118.35 30.0514C118.656 29.8472 119.044 29.7519 119.514 29.7655V30.6844C119.166 30.6844 118.87 30.7321 118.625 30.8274C118.38 30.9227 118.183 31.0622 118.033 31.246C117.883 31.4298 117.774 31.6544 117.706 31.9198C117.638 32.1785 117.604 32.478 117.604 32.8183V35.1666H116.736V29.888ZM123.653 32.0219C123.639 31.8177 123.592 31.6237 123.51 31.44C123.435 31.2562 123.33 31.0996 123.194 30.9703C123.064 30.8342 122.908 30.7287 122.724 30.6538C122.547 30.5721 122.35 30.5313 122.132 30.5313C121.907 30.5313 121.703 30.5721 121.519 30.6538C121.342 30.7287 121.189 30.8342 121.06 30.9703C120.93 31.1064 120.828 31.2664 120.753 31.4502C120.678 31.6272 120.634 31.8177 120.621 32.0219H123.653ZM124.49 33.4922C124.375 34.0844 124.119 34.5302 123.724 34.8297C123.33 35.1292 122.833 35.2789 122.234 35.2789C121.812 35.2789 121.444 35.2109 121.131 35.0747C120.825 34.9386 120.566 34.748 120.355 34.503C120.144 34.2579 119.984 33.9652 119.875 33.6249C119.773 33.2846 119.715 32.9136 119.702 32.512C119.702 32.1104 119.763 31.7429 119.886 31.4093C120.008 31.0758 120.178 30.7865 120.396 30.5415C120.621 30.2964 120.883 30.1059 121.182 29.9697C121.488 29.8336 121.822 29.7655 122.183 29.7655C122.652 29.7655 123.04 29.8642 123.347 30.0616C123.66 30.2522 123.908 30.4972 124.092 30.7967C124.283 31.0962 124.412 31.423 124.48 31.7769C124.555 32.1308 124.586 32.4678 124.572 32.7877H120.621C120.614 33.0191 120.641 33.2403 120.702 33.4513C120.764 33.6555 120.862 33.8393 120.998 34.0027C121.135 34.1592 121.308 34.2852 121.519 34.3804C121.73 34.4757 121.979 34.5234 122.264 34.5234C122.632 34.5234 122.932 34.4383 123.163 34.2681C123.401 34.098 123.558 33.8393 123.633 33.4922H124.49ZM126.39 28.9385H125.523V27.8767H126.39V28.9385ZM125.523 29.888H126.39V35.1666H125.523V29.888ZM132.289 34.7174C132.289 35.5818 132.091 36.2285 131.696 36.6573C131.302 37.0861 130.682 37.3005 129.838 37.3005C129.593 37.3005 129.341 37.2733 129.083 37.2188C128.831 37.1644 128.599 37.0759 128.388 36.9534C128.184 36.8308 128.014 36.6709 127.878 36.4735C127.742 36.2761 127.667 36.0345 127.653 35.7486H128.521C128.528 35.9051 128.575 36.0379 128.664 36.1468C128.759 36.2557 128.872 36.3442 129.001 36.4122C129.137 36.4803 129.283 36.528 129.44 36.5552C129.596 36.5892 129.746 36.6062 129.889 36.6062C130.175 36.6062 130.417 36.5552 130.614 36.4531C130.811 36.3578 130.975 36.2217 131.104 36.0447C131.233 35.8745 131.325 35.6669 131.38 35.4219C131.441 35.1768 131.472 34.908 131.472 34.6153V34.2681H131.451C131.302 34.5949 131.074 34.8365 130.767 34.993C130.468 35.1428 130.148 35.2177 129.807 35.2177C129.413 35.2177 129.069 35.1462 128.776 35.0033C128.484 34.8603 128.239 34.6697 128.041 34.4315C127.844 34.1865 127.694 33.904 127.592 33.5841C127.497 33.2573 127.449 32.9136 127.449 32.5529C127.449 32.2398 127.49 31.9198 127.571 31.5931C127.653 31.2596 127.789 30.9601 127.98 30.6946C128.17 30.4224 128.422 30.2012 128.735 30.031C129.049 29.854 129.433 29.7655 129.889 29.7655C130.223 29.7655 130.529 29.8404 130.808 29.9901C131.087 30.1331 131.305 30.3509 131.462 30.6436H131.472V29.888H132.289V34.7174ZM129.859 34.4621C130.144 34.4621 130.386 34.4043 130.583 34.2886C130.788 34.166 130.951 34.0095 131.074 33.8189C131.196 33.6215 131.285 33.4003 131.339 33.1552C131.4 32.9102 131.431 32.6652 131.431 32.4201C131.431 32.1887 131.404 31.9607 131.349 31.7361C131.295 31.5114 131.206 31.3106 131.084 31.1337C130.968 30.9499 130.815 30.8035 130.624 30.6946C130.434 30.5857 130.202 30.5313 129.93 30.5313C129.651 30.5313 129.413 30.5857 129.215 30.6946C129.018 30.7967 128.855 30.9363 128.725 31.1132C128.603 31.2902 128.511 31.4944 128.45 31.7258C128.395 31.9573 128.368 32.1989 128.368 32.4508C128.368 32.689 128.392 32.9272 128.439 33.1655C128.487 33.4037 128.569 33.6215 128.684 33.8189C128.8 34.0095 128.953 34.166 129.144 34.2886C129.334 34.4043 129.573 34.4621 129.859 34.4621ZM133.598 27.8767H134.465V30.664H134.486C134.554 30.5006 134.649 30.3645 134.772 30.2556C134.894 30.1399 135.03 30.048 135.18 29.9799C135.337 29.9051 135.497 29.8506 135.66 29.8166C135.83 29.7825 135.994 29.7655 136.15 29.7655C136.497 29.7655 136.787 29.8132 137.018 29.9085C137.249 30.0038 137.437 30.1365 137.58 30.3067C137.722 30.4768 137.821 30.681 137.876 30.9193C137.937 31.1507 137.968 31.4093 137.968 31.6952V35.1666H137.1V31.5931C137.1 31.2664 137.004 31.0077 136.814 30.8172C136.623 30.6266 136.361 30.5313 136.028 30.5313C135.762 30.5313 135.531 30.5721 135.333 30.6538C135.143 30.7355 134.983 30.8512 134.853 31.0009C134.724 31.1507 134.625 31.3277 134.557 31.5319C134.496 31.7293 134.465 31.9471 134.465 32.1853V35.1666H133.598V27.8767ZM140.476 29.888H141.527V30.6538H140.476V33.9312C140.476 34.0333 140.483 34.115 140.496 34.1762C140.517 34.2375 140.551 34.2852 140.598 34.3192C140.646 34.3532 140.711 34.377 140.792 34.3907C140.881 34.3975 140.993 34.4009 141.129 34.4009H141.527V35.1666H140.864C140.639 35.1666 140.445 35.153 140.282 35.1258C140.125 35.0917 139.996 35.0339 139.894 34.9522C139.798 34.8705 139.727 34.7548 139.679 34.6051C139.632 34.4553 139.608 34.2579 139.608 34.0129V30.6538H138.709V29.888H139.608V28.3055H140.476V29.888ZM149.693 30.0106C149.638 29.4865 149.448 29.1087 149.121 28.8773C148.801 28.639 148.389 28.5199 147.886 28.5199C147.681 28.5199 147.481 28.5403 147.283 28.5812C147.086 28.622 146.909 28.6901 146.752 28.7854C146.603 28.8807 146.48 29.01 146.385 29.1733C146.296 29.3299 146.252 29.5273 146.252 29.7655C146.252 29.9901 146.317 30.1739 146.446 30.3169C146.582 30.453 146.759 30.5653 146.977 30.6538C147.202 30.7423 147.453 30.8172 147.733 30.8784C148.012 30.9329 148.294 30.9941 148.58 31.0622C148.873 31.1303 149.158 31.2119 149.438 31.3072C149.717 31.3957 149.965 31.5182 150.183 31.6748C150.408 31.8314 150.584 32.0287 150.714 32.267C150.85 32.5052 150.918 32.8047 150.918 33.1655C150.918 33.5534 150.83 33.887 150.653 34.166C150.482 34.4383 150.261 34.6629 149.989 34.8399C149.717 35.0101 149.41 35.1326 149.07 35.2075C148.736 35.2891 148.403 35.33 148.069 35.33C147.661 35.33 147.273 35.2789 146.905 35.1768C146.545 35.0747 146.225 34.9216 145.946 34.7174C145.673 34.5064 145.456 34.2409 145.292 33.921C145.136 33.5943 145.057 33.2097 145.057 32.7673H145.976C145.976 33.0736 146.034 33.339 146.15 33.5636C146.272 33.7815 146.429 33.9618 146.62 34.1048C146.817 34.2477 147.045 34.3532 147.304 34.4213C147.562 34.4894 147.828 34.5234 148.1 34.5234C148.318 34.5234 148.536 34.503 148.754 34.4621C148.978 34.4213 149.179 34.3532 149.356 34.2579C149.533 34.1558 149.676 34.0197 149.785 33.8495C149.894 33.6794 149.948 33.4615 149.948 33.1961C149.948 32.9442 149.88 32.74 149.744 32.5835C149.615 32.4269 149.438 32.301 149.213 32.2057C148.995 32.1036 148.747 32.0219 148.468 31.9607C148.189 31.8994 147.903 31.8382 147.61 31.7769C147.324 31.7088 147.042 31.634 146.763 31.5523C146.483 31.4638 146.232 31.3515 146.007 31.2153C145.789 31.0724 145.612 30.892 145.476 30.6742C145.347 30.4496 145.282 30.1705 145.282 29.837C145.282 29.4694 145.357 29.1529 145.507 28.8875C145.656 28.6152 145.854 28.394 146.099 28.2238C146.351 28.0468 146.633 27.9175 146.946 27.8358C147.266 27.7474 147.593 27.7031 147.926 27.7031C148.301 27.7031 148.648 27.7474 148.968 27.8358C149.288 27.9243 149.567 28.0639 149.805 28.2544C150.05 28.445 150.241 28.6867 150.377 28.9794C150.52 29.2652 150.598 29.609 150.612 30.0106H149.693ZM155.619 32.0219C155.605 31.8177 155.558 31.6237 155.476 31.44C155.401 31.2562 155.296 31.0996 155.16 30.9703C155.03 30.8342 154.874 30.7287 154.69 30.6538C154.513 30.5721 154.316 30.5313 154.098 30.5313C153.873 30.5313 153.669 30.5721 153.485 30.6538C153.308 30.7287 153.155 30.8342 153.026 30.9703C152.896 31.1064 152.794 31.2664 152.719 31.4502C152.645 31.6272 152.6 31.8177 152.587 32.0219H155.619ZM156.456 33.4922C156.341 34.0844 156.085 34.5302 155.691 34.8297C155.296 35.1292 154.799 35.2789 154.2 35.2789C153.778 35.2789 153.41 35.2109 153.097 35.0747C152.791 34.9386 152.532 34.748 152.321 34.503C152.11 34.2579 151.95 33.9652 151.841 33.6249C151.739 33.2846 151.681 32.9136 151.668 32.512C151.668 32.1104 151.729 31.7429 151.852 31.4093C151.974 31.0758 152.144 30.7865 152.362 30.5415C152.587 30.2964 152.849 30.1059 153.148 29.9697C153.455 29.8336 153.788 29.7655 154.149 29.7655C154.619 29.7655 155.006 29.8642 155.313 30.0616C155.626 30.2522 155.874 30.4972 156.058 30.7967C156.249 31.0962 156.378 31.423 156.446 31.7769C156.521 32.1308 156.552 32.4678 156.538 32.7877H152.587C152.58 33.0191 152.607 33.2403 152.668 33.4513C152.73 33.6555 152.828 33.8393 152.964 34.0027C153.101 34.1592 153.274 34.2852 153.485 34.3804C153.696 34.4757 153.945 34.5234 154.231 34.5234C154.598 34.5234 154.898 34.4383 155.129 34.2681C155.367 34.098 155.524 33.8393 155.599 33.4922H156.456ZM157.407 29.888H158.224V31.0009H158.244C158.455 30.5721 158.714 30.2556 159.02 30.0514C159.326 29.8472 159.714 29.7519 160.184 29.7655V30.6844C159.837 30.6844 159.541 30.7321 159.296 30.8274C159.051 30.9227 158.853 31.0622 158.704 31.246C158.554 31.4298 158.445 31.6544 158.377 31.9198C158.309 32.1785 158.275 32.478 158.275 32.8183V35.1666H157.407V29.888ZM163.217 35.1666H162.287L160.327 29.888H161.297L162.777 34.2886H162.798L164.238 29.888H165.146L163.217 35.1666ZM166.861 28.9385H165.994V27.8767H166.861V28.9385ZM165.994 29.888H166.861V35.1666H165.994V29.888ZM171.79 31.5829C171.722 31.2494 171.579 30.9907 171.361 30.8069C171.143 30.6232 170.85 30.5313 170.483 30.5313C170.17 30.5313 169.908 30.5891 169.697 30.7048C169.486 30.8206 169.315 30.9737 169.186 31.1643C169.064 31.3549 168.975 31.5761 168.921 31.8279C168.866 32.073 168.839 32.3282 168.839 32.5937C168.839 32.8387 168.866 33.077 168.921 33.3084C168.982 33.5398 169.074 33.7474 169.196 33.9312C169.319 34.1082 169.479 34.2511 169.676 34.36C169.874 34.4689 170.108 34.5234 170.381 34.5234C170.809 34.5234 171.143 34.4111 171.381 34.1865C171.626 33.9618 171.776 33.6453 171.83 33.2369H172.719C172.623 33.8904 172.378 34.3941 171.984 34.748C171.596 35.102 171.065 35.2789 170.391 35.2789C169.989 35.2789 169.632 35.2143 169.319 35.0849C169.013 34.9556 168.754 34.7718 168.543 34.5336C168.339 34.2954 168.182 34.0129 168.073 33.6862C167.971 33.3526 167.92 32.9885 167.92 32.5937C167.92 32.1989 167.971 31.8314 168.073 31.491C168.175 31.1439 168.328 30.8444 168.533 30.5925C168.744 30.3339 169.006 30.1331 169.319 29.9901C169.632 29.8404 169.996 29.7655 170.411 29.7655C170.711 29.7655 170.99 29.803 171.249 29.8778C171.514 29.9459 171.745 30.0548 171.943 30.2046C172.147 30.3543 172.314 30.5449 172.443 30.7763C172.572 31.0009 172.654 31.2698 172.688 31.5829H171.79ZM177.355 32.0219C177.342 31.8177 177.294 31.6237 177.212 31.44C177.137 31.2562 177.032 31.0996 176.896 30.9703C176.766 30.8342 176.61 30.7287 176.426 30.6538C176.249 30.5721 176.052 30.5313 175.834 30.5313C175.609 30.5313 175.405 30.5721 175.221 30.6538C175.044 30.7287 174.891 30.8342 174.762 30.9703C174.633 31.1064 174.53 31.2664 174.456 31.4502C174.381 31.6272 174.336 31.8177 174.323 32.0219H177.355ZM178.192 33.4922C178.077 34.0844 177.821 34.5302 177.427 34.8297C177.032 35.1292 176.535 35.2789 175.936 35.2789C175.514 35.2789 175.146 35.2109 174.833 35.0747C174.527 34.9386 174.268 34.748 174.057 34.503C173.846 34.2579 173.686 33.9652 173.578 33.6249C173.475 33.2846 173.418 32.9136 173.404 32.512C173.404 32.1104 173.465 31.7429 173.588 31.4093C173.71 31.0758 173.88 30.7865 174.098 30.5415C174.323 30.2964 174.585 30.1059 174.884 29.9697C175.191 29.8336 175.524 29.7655 175.885 29.7655C176.355 29.7655 176.743 29.8642 177.049 30.0616C177.362 30.2522 177.61 30.4972 177.794 30.7967C177.985 31.0962 178.114 31.423 178.182 31.7769C178.257 32.1308 178.288 32.4678 178.274 32.7877H174.323C174.316 33.0191 174.343 33.2403 174.405 33.4513C174.466 33.6555 174.564 33.8393 174.701 34.0027C174.837 34.1592 175.01 34.2852 175.221 34.3804C175.432 34.4757 175.681 34.5234 175.967 34.5234C176.334 34.5234 176.634 34.4383 176.865 34.2681C177.103 34.098 177.26 33.8393 177.335 33.4922H178.192ZM179.705 33.5024C179.711 33.693 179.756 33.8563 179.837 33.9925C179.919 34.1218 180.025 34.2273 180.154 34.309C180.29 34.3839 180.44 34.4383 180.603 34.4723C180.773 34.5064 180.947 34.5234 181.124 34.5234C181.26 34.5234 181.403 34.5132 181.553 34.4928C181.702 34.4723 181.839 34.4349 181.961 34.3804C182.09 34.326 182.196 34.2477 182.278 34.1456C182.359 34.0367 182.4 33.9006 182.4 33.7372C182.4 33.5126 182.315 33.3424 182.145 33.2267C181.975 33.111 181.76 33.0191 181.502 32.951C181.25 32.8762 180.974 32.8115 180.675 32.7571C180.375 32.6958 180.096 32.6141 179.837 32.512C179.586 32.4031 179.375 32.2534 179.204 32.0628C179.034 31.8722 178.949 31.6067 178.949 31.2664C178.949 31.0009 179.007 30.7729 179.123 30.5823C179.245 30.3917 179.398 30.2386 179.582 30.1229C179.773 30.0004 179.984 29.9119 180.215 29.8574C180.453 29.7962 180.688 29.7655 180.92 29.7655C181.219 29.7655 181.495 29.7928 181.747 29.8472C181.998 29.8949 182.22 29.9833 182.41 30.1127C182.608 30.2352 182.764 30.4054 182.88 30.6232C182.996 30.8342 183.064 31.0996 183.084 31.4195H182.216C182.203 31.2494 182.158 31.1098 182.084 31.0009C182.009 30.8852 181.913 30.7933 181.798 30.7253C181.682 30.6572 181.553 30.6096 181.41 30.5823C181.274 30.5483 181.134 30.5313 180.991 30.5313C180.862 30.5313 180.729 30.5415 180.593 30.5619C180.464 30.5823 180.344 30.6198 180.236 30.6742C180.127 30.7219 180.038 30.7899 179.97 30.8784C179.902 30.9601 179.868 31.069 179.868 31.2051C179.868 31.3549 179.919 31.4808 180.021 31.5829C180.13 31.6782 180.266 31.7599 180.43 31.8279C180.593 31.8892 180.777 31.9437 180.981 31.9913C181.185 32.0321 181.389 32.0764 181.593 32.124C181.811 32.1717 182.022 32.2295 182.227 32.2976C182.438 32.3657 182.621 32.4576 182.778 32.5733C182.941 32.6822 183.071 32.8217 183.166 32.9919C183.268 33.1621 183.319 33.3731 183.319 33.6249C183.319 33.9448 183.251 34.2103 183.115 34.4213C182.985 34.6323 182.812 34.8025 182.594 34.9318C182.383 35.0611 182.141 35.1496 181.869 35.1972C181.604 35.2517 181.338 35.2789 181.073 35.2789C180.78 35.2789 180.501 35.2483 180.236 35.187C179.97 35.1258 179.735 35.0271 179.531 34.8909C179.327 34.748 179.164 34.5642 179.041 34.3396C178.918 34.1082 178.85 33.8291 178.837 33.5024H179.705Z" fill="white"/>
</svg>
