<svg xmlns="http://www.w3.org/2000/svg" viewBox="0 0 520 360" role="img" aria-labelledby="title desc">
  <title id="title">Team unity illustration</title>
  <desc id="desc">Abstract illustration of team members joining hands</desc>
  <defs>
    <linearGradient id="bg" x1="0" x2="1" y1="0" y2="1">
      <stop offset="0%" stop-color="#0f4669" />
      <stop offset="100%" stop-color="#25637a" />
    </linearGradient>
    <linearGradient id="hand" x1="0" x2="0" y1="0" y2="1">
      <stop offset="0%" stop-color="#f6d2b8" />
      <stop offset="100%" stop-color="#d9a983" />
    </linearGradient>
  </defs>
  <rect width="520" height="360" fill="url(#bg)" />
  <g transform="translate(70 80)">
    <path d="M190 110c30-60 90-60 110-10s-20 120-80 130c-60 10-120-30-130-70-10-40 30-70 70-50" fill="#0b2f44" opacity="0.4" />
    <path d="M132 86c18-18 44-12 54 6s4 44-14 52l-40 18-16-32z" fill="url(#hand)" />
    <path d="M166 112l34-22 42 42-38 32z" fill="#f0c2a2" />
    <path d="M214 144l46-32 24 52-52 26z" fill="#f4cbb0" />
    <path d="M256 158l38-36 34 38-52 28z" fill="#eab9a0" />
    <circle cx="120" cy="108" r="32" fill="#f7b78f" />
    <circle cx="280" cy="170" r="36" fill="#efc3a7" />
    <rect x="96" y="180" width="240" height="32" rx="16" fill="#083753" opacity="0.6" />
  </g>
</svg>
