<svg width="13" height="20" viewBox="0 0 13 20" fill="none" xmlns="http://www.w3.org/2000/svg">
<path d="M12.5 20H0V0H12.5V20Z" stroke="#E5E7EB"/>
<path d="M6.25006 0C6.94146 0 7.50006 0.558594 7.50006 1.25V2.64453C7.56256 2.65234 7.62115 2.66016 7.68365 2.67188C7.69928 2.67578 7.71099 2.67578 7.72662 2.67969L9.60162 3.02344C10.2813 3.14844 10.7305 3.80078 10.6055 4.47656C10.4805 5.15234 9.82818 5.60547 9.1524 5.48047L7.29693 5.14062C6.07428 4.96094 4.99615 5.08203 4.23834 5.38281C3.48053 5.68359 3.17584 6.09766 3.10553 6.48047C3.0274 6.89844 3.08599 7.13281 3.1524 7.27734C3.22271 7.42969 3.36724 7.60156 3.6524 7.79297C4.28912 8.21094 5.26568 8.48438 6.53131 8.82031L6.64459 8.85156C7.76178 9.14844 9.12896 9.50781 10.1446 10.1719C10.6993 10.5352 11.2227 11.0273 11.5469 11.7148C11.879 12.4141 11.9493 13.1953 11.7969 14.0273C11.5274 15.5117 10.504 16.5039 9.23443 17.0234C8.69928 17.2422 8.11724 17.3828 7.50006 17.4531V18.75C7.50006 19.4414 6.94146 20 6.25006 20C5.55865 20 5.00006 19.4414 5.00006 18.75V17.3867C4.98443 17.3828 4.9649 17.3828 4.94928 17.3789H4.94146C3.98834 17.2305 2.42193 16.8203 1.36724 16.3516C0.738338 16.0703 0.453181 15.332 0.734431 14.7031C1.01568 14.0742 1.75396 13.7891 2.38287 14.0703C3.19928 14.4336 4.54303 14.793 5.32037 14.9141C6.56646 15.0977 7.59381 14.9922 8.28912 14.707C8.94928 14.4375 9.25006 14.0469 9.33599 13.5781C9.41021 13.1641 9.35162 12.9258 9.28521 12.7812C9.21099 12.625 9.06646 12.4531 8.7774 12.2617C8.13678 11.8438 7.15631 11.5703 5.88678 11.2344L5.7774 11.207C4.66412 10.9102 3.29693 10.5469 2.28131 9.88281C1.72662 9.51953 1.20709 9.02344 0.882869 8.33594C0.554744 7.63672 0.488338 6.85547 0.644588 6.02344C0.925838 4.53125 2.04303 3.5625 3.31256 3.05859C3.83209 2.85156 4.4024 2.71094 5.00006 2.62891V1.25C5.00006 0.558594 5.55865 0 6.25006 0Z" fill="#2970FF"/>
</svg>
