<svg width="69" height="72" viewBox="0 0 69 72" fill="none" xmlns="http://www.w3.org/2000/svg">
<path opacity="0.4" d="M62.5 53.0375C62.5 57.6458 56.0145 60.3854 43.0436 65.8647C37.8327 68.0659 35.2273 69.1665 32.5 69.1665C29.7727 69.1665 27.1673 68.0659 21.9564 65.8647C8.98547 60.3854 2.5 57.6458 2.5 53.0375L2.5 19.1665L32.5 33.6826L62.5 19.1665L62.5 53.0375Z" fill="white"/>
<path d="M32.5 71.666C33.1629 71.666 33.7988 71.4032 34.2676 70.9346C34.7364 70.4657 35 69.8291 35 69.166L35 34.7607C37.9504 34.2066 41.0163 32.722 45.2822 30.6563C45.4644 30.568 45.6493 30.478 45.8359 30.3877L55.7539 25.5889C57.3438 24.8197 58.7816 24.1231 60 23.4619V35.833C60 37.2137 61.1193 38.333 62.5 38.333C63.8807 38.333 65 37.2137 65 35.833L65 19.166C65 18.9259 64.9636 18.6944 64.9004 18.4746C64.9643 18.1672 65 17.8428 65 17.5C65 15.1599 63.3837 13.6722 61.8955 12.667C60.4092 11.663 58.2717 10.6283 55.7539 9.41016L45.8359 4.61133C45.6493 4.521 45.4644 4.43198 45.2822 4.34375C39.8098 1.69369 36.3124 0 32.5 0C28.6876 0 25.1902 1.69369 19.7178 4.34375C19.5356 4.43198 19.3507 4.521 19.1641 4.61133L9.42676 9.32324C9.36639 9.35245 9.30603 9.38116 9.24609 9.41016C6.7283 10.6283 4.59081 11.663 3.10449 12.667C1.61635 13.6722 0 15.1599 0 17.5C2.22636e-05 17.8428 0.0347324 18.1673 0.0986328 18.4746C0.0354578 18.6943 3.08168e-05 18.926 0 19.166L0 53.0371C0 56.7718 2.72484 59.2554 6.07813 61.2676C9.47273 63.3046 14.4661 65.4145 20.7764 68.0801L20.9834 68.167C21.1511 68.2378 21.3169 68.3088 21.4805 68.3779C26.2105 70.3776 29.2599 71.666 32.5 71.666ZM11.6045 21.1758C8.85695 19.8463 7.05352 18.9663 5.90332 18.1895C5.40868 17.8553 5.1692 17.629 5.05859 17.5C5.16919 17.371 5.40878 17.1446 5.90332 16.8105C7.05347 16.0337 8.85696 15.1537 11.6045 13.8242L21.3418 9.1123C27.5679 6.09955 29.9747 5 32.5 5C35.0253 5 37.4321 6.09955 43.6582 9.1123L43.6719 9.11914L15.6465 23.1328L11.6045 21.1758ZM32.5 30C29.9747 30 27.5679 28.9004 21.3418 25.8877L21.3281 25.8818L49.3535 11.8691L53.3955 13.8242C56.143 15.1537 57.9465 16.0337 59.0967 16.8105C59.5912 17.1446 59.8308 17.371 59.9414 17.5C59.8308 17.629 59.5913 17.8553 59.0967 18.1895C57.9465 18.9663 56.1431 19.8463 53.3955 21.1758L43.6582 25.8877C37.4321 28.9004 35.0253 30 32.5 30ZM30 66.2939C28.4038 65.8548 26.3269 64.9966 22.9297 63.5615C16.367 60.7892 11.7042 58.813 8.65039 56.9805C5.5183 55.101 5 53.9107 5 53.0371L5 23.4619C6.21839 24.1231 7.65625 24.8197 9.24609 25.5889L19.1641 30.3877C19.3507 30.478 19.5356 30.568 19.7178 30.6563C23.9837 32.722 27.0496 34.2066 30 34.7607L30 66.2939ZM18.0488 41.4033C19.2837 42.0208 20.7858 41.52 21.4033 40.2852C22.0208 39.0502 21.5201 37.5481 20.2852 36.9307L13.6182 33.5977C12.3833 32.9804 10.8821 33.481 10.2646 34.7158C9.64731 35.9507 10.1479 37.4519 11.3828 38.0693L18.0488 41.4033ZM48.2148 68.3311C49.1638 68.3761 50.0568 67.8781 50.5186 67.0479L50.5225 67.041L50.5391 67.0107L50.6123 66.8809C50.678 66.7654 50.7774 66.5929 50.9072 66.3701C51.1672 65.9241 51.5501 65.2781 52.0361 64.4912C53.01 62.9144 54.39 60.7833 56.0146 58.5576C57.6442 56.3251 59.4904 54.0393 61.3945 52.1309C63.3307 50.1903 65.1718 48.7988 66.7715 48.1514C68.0513 47.6333 68.6684 46.1753 68.1504 44.8955C67.6323 43.6158 66.1753 42.9986 64.8955 43.5166C62.3775 44.5358 59.9716 46.4777 57.8545 48.5996C55.7056 50.7535 53.6914 53.2588 51.9756 55.6094C50.5939 57.5022 49.3863 59.3223 48.4355 60.8213C47.551 59.5472 46.6699 58.6456 45.8379 58.0117C45.0737 57.4295 44.3692 57.0878 43.7773 56.8945C43.4838 56.7987 43.2246 56.742 43.0078 56.709C42.8998 56.6925 42.8027 56.6821 42.7178 56.6758C42.6753 56.6726 42.6349 56.6703 42.5986 56.6689L42.5469 56.667H42.5C41.1193 56.667 40 57.7863 40 59.167C40 60.461 40.9831 61.5257 42.2432 61.6543C42.313 61.6796 42.5107 61.763 42.8076 61.9893C43.4715 62.4951 44.7019 63.7705 46.043 66.8359C46.4239 67.7065 47.2657 68.286 48.2148 68.3311Z" fill="white"/>
</svg>
