<svg width="9" height="11" viewBox="0 0 9 11" fill="none" xmlns="http://www.w3.org/2000/svg">
<g clip-path="url(#clip0_0_1935)">
<path d="M4.50107 2.83241C3.2234 2.83241 2.19282 3.86299 2.19282 5.14067C2.19282 6.41834 3.2234 7.44892 4.50107 7.44892C5.77875 7.44892 6.80933 6.41834 6.80933 5.14067C6.80933 3.86299 5.77875 2.83241 4.50107 2.83241ZM4.50107 6.64134C3.6754 6.64134 3.0004 5.96834 3.0004 5.14067C3.0004 4.31299 3.6734 3.64 4.50107 3.64C5.32875 3.64 6.00174 4.31299 6.00174 5.14067C6.00174 5.96834 5.32674 6.64134 4.50107 6.64134ZM7.44215 2.73799C7.44215 3.03732 7.20107 3.27638 6.90375 3.27638C6.60442 3.27638 6.36536 3.03531 6.36536 2.73799C6.36536 2.44067 6.60643 2.1996 6.90375 2.1996C7.20107 2.1996 7.44215 2.44067 7.44215 2.73799ZM8.97094 3.28442C8.93679 2.56321 8.77206 1.92437 8.24371 1.39803C7.71737 0.871694 7.07853 0.706961 6.35732 0.670801C5.61402 0.628613 3.38612 0.628613 2.64282 0.670801C1.92362 0.704953 1.28478 0.869685 0.756431 1.39602C0.228083 1.92236 0.0653599 2.5612 0.0291992 3.28241C-0.0129883 4.02571 -0.0129883 6.25361 0.0291992 6.99692C0.063351 7.71812 0.228083 8.35696 0.756431 8.8833C1.28478 9.40964 1.92161 9.57437 2.64282 9.61053C3.38612 9.65272 5.61402 9.65272 6.35732 9.61053C7.07853 9.57638 7.71737 9.41165 8.24371 8.8833C8.77005 8.35696 8.93478 7.71812 8.97094 6.99692C9.01313 6.25361 9.01313 4.02772 8.97094 3.28442ZM8.01067 7.79446C7.85398 8.18821 7.55063 8.49156 7.15487 8.65026C6.56224 8.88531 5.15598 8.83107 4.50107 8.83107C3.84616 8.83107 2.4379 8.8833 1.84728 8.65026C1.45353 8.49357 1.15018 8.19022 0.991476 7.79446C0.756431 7.20183 0.810672 5.79558 0.810672 5.14067C0.810672 4.48576 0.75844 3.0775 0.991476 2.48687C1.14817 2.09312 1.45152 1.78977 1.84728 1.63107C2.43991 1.39602 3.84616 1.45026 4.50107 1.45026C5.15598 1.45026 6.56424 1.39803 7.15487 1.63107C7.54862 1.78776 7.85197 2.09111 8.01067 2.48687C8.24572 3.07951 8.19148 4.48576 8.19148 5.14067C8.19148 5.79558 8.24572 7.20384 8.01067 7.79446Z" fill="white"/>
</g>
<defs>
<clipPath id="clip0_0_1935">
<path d="M0 0H9V10.2857H0V0Z" fill="white"/>
</clipPath>
</defs>
</svg>
