<svg width="16" height="16" viewBox="0 0 16 16" fill="none" xmlns="http://www.w3.org/2000/svg">
<path d="M11.0817 8.5599C10.5512 8.36342 10.0895 8.48131 9.6965 8.91357L8.72391 10.0925C7.34852 9.28689 6.25803 8.19641 5.45244 6.82102L6.63135 5.84842C7.06361 5.45545 7.1815 4.99371 6.98502 4.4632L5.57033 1.16227C5.45244 0.906836 5.26578 0.720176 5.01035 0.602285C4.77457 0.464746 4.51914 0.425449 4.24406 0.484394L0.943125 1.19174C0.353672 1.34893 0.0392969 1.73207 0 2.34117C0.0196484 4.64004 0.550156 6.7326 1.59152 8.61885C2.61324 10.5051 4.00828 12.0573 5.77664 13.2755C7.545 14.4741 9.54914 15.2109 11.7891 15.486C12.0838 15.5056 12.3785 15.5253 12.6732 15.5449C12.8501 15.5449 13.0269 15.5449 13.2038 15.5449C13.8129 15.5056 14.196 15.2011 14.3532 14.6313L15.0605 11.3303C15.1195 11.0356 15.09 10.7704 14.9721 10.5346C14.8346 10.2791 14.6381 10.0925 14.3827 9.97459L11.0817 8.5599ZM13.0269 14.1302C10.8656 14.0713 8.92039 13.5211 7.19133 12.4798C5.46227 11.458 4.08687 10.0827 3.06516 8.35359C2.02379 6.62453 1.47363 4.68916 1.41469 2.54748L4.33248 1.89908L5.5998 4.87582L4.53879 5.73053C4.28336 5.96631 4.12617 6.25121 4.06723 6.58523C4.00828 6.89961 4.0574 7.21398 4.21459 7.52836C5.15771 9.11988 6.42504 10.3872 8.01656 11.3303C8.33094 11.5072 8.65514 11.5563 8.98916 11.4777C9.30354 11.4187 9.57861 11.2616 9.81439 11.0061L10.6986 9.94512L13.6458 11.2124L13.0269 14.1302Z" fill="#2970FF"/>
</svg>
