<svg width="9" height="11" viewBox="0 0 9 11" fill="none" xmlns="http://www.w3.org/2000/svg">
<g clip-path="url(#clip0_0_1940)">
<path d="M2.01529 8.9998H0.149393V2.99109H2.01529V8.9998ZM1.08134 2.17145C0.484683 2.17145 0.000732422 1.67725 0.000732422 1.0806C0.000732426 0.794009 0.114581 0.519153 0.317234 0.316501C0.519886 0.113849 0.794741 0 1.08134 0C1.36793 0 1.64278 0.113849 1.84544 0.316501C2.04809 0.519153 2.16194 0.794009 2.16194 1.0806C2.16194 1.67725 1.67779 2.17145 1.08134 2.17145ZM8.99872 8.9998H7.13685V6.0748C7.13685 5.3777 7.12279 4.48373 6.16674 4.48373C5.19663 4.48373 5.04796 5.24109 5.04796 6.02458V8.9998H3.18408V2.99109H4.97363V3.81074H4.99975C5.24886 3.33864 5.85736 2.84042 6.7652 2.84042C8.65359 2.84042 9.00073 4.08395 9.00073 5.69913V8.9998H8.99872Z" fill="white"/>
</g>
<defs>
<clipPath id="clip0_0_1940">
<path d="M0 0H9V10.2857H0V0Z" fill="white"/>
</clipPath>
</defs>
</svg>
