<svg width="12" height="16" viewBox="0 0 12 16" fill="none" xmlns="http://www.w3.org/2000/svg">
<path d="M9.82625 6.12794C9.78726 4.93865 9.37783 3.94433 8.59797 3.14497C7.79861 2.36511 6.80429 1.95569 5.615 1.91669C4.42571 1.95569 3.43139 2.36511 2.63203 3.14497C1.85217 3.94433 1.44274 4.93865 1.40375 6.12794C1.40375 6.49838 1.54997 7.05403 1.84242 7.7949C2.17386 8.53576 2.59304 9.31563 3.09995 10.1345C3.52887 10.8169 3.95779 11.47 4.38672 12.0939C4.83514 12.7178 5.24457 13.2637 5.615 13.7316C5.98543 13.2637 6.39486 12.7178 6.84328 12.0939C7.2917 11.47 7.72062 10.8169 8.13005 10.1345C8.63696 9.31563 9.05614 8.53576 9.38758 7.7949C9.68003 7.05403 9.82625 6.49838 9.82625 6.12794ZM11.23 6.12794C11.191 7.00529 10.8791 8.01911 10.2942 9.1694C9.68977 10.3197 9.0074 11.431 8.24703 12.5033C7.48667 13.5951 6.84328 14.4627 6.31687 15.1061C6.12191 15.3401 5.88795 15.457 5.615 15.457C5.34205 15.457 5.10809 15.3401 4.91312 15.1061C4.38672 14.4627 3.74333 13.5951 2.98297 12.5033C2.2226 11.431 1.54023 10.3197 0.935833 9.1694C0.350937 8.01911 0.0389931 7.00529 0 6.12794C0.0389931 4.52923 0.584896 3.20346 1.63771 2.15065C2.69052 1.09784 4.01628 0.551936 5.615 0.512942C7.21372 0.551936 8.53948 1.09784 9.59229 2.15065C10.6451 3.20346 11.191 4.52923 11.23 6.12794ZM6.55083 6.12794C6.55083 5.85499 6.4631 5.63078 6.28763 5.45531C6.11216 5.27984 5.88795 5.19211 5.615 5.19211C5.34205 5.19211 5.11784 5.27984 4.94237 5.45531C4.7669 5.63078 4.67917 5.85499 4.67917 6.12794C4.67917 6.40089 4.7669 6.6251 4.94237 6.80057C5.11784 6.97604 5.34205 7.06378 5.615 7.06378C5.88795 7.06378 6.11216 6.97604 6.28763 6.80057C6.4631 6.6251 6.55083 6.40089 6.55083 6.12794ZM3.27542 6.12794C3.29491 5.2506 3.68484 4.57797 4.44521 4.11005C5.22507 3.68113 6.00493 3.68113 6.78479 4.11005C7.54516 4.57797 7.93509 5.2506 7.95458 6.12794C7.93509 7.00529 7.54516 7.67792 6.78479 8.14583C6.00493 8.57476 5.22507 8.57476 4.44521 8.14583C3.68484 7.67792 3.29491 7.00529 3.27542 6.12794Z" fill="#2970FF"/>
</svg>
