<svg width="16" height="16" viewBox="0 0 16 16" fill="none" xmlns="http://www.w3.org/2000/svg">
<path d="M1.88625 3.75637C1.59152 3.77602 1.43434 3.9332 1.41469 4.22793V4.87633L6.51346 9.06145C6.82783 9.29723 7.17168 9.41512 7.545 9.41512C7.93797 9.41512 8.29164 9.29723 8.60602 9.06145L13.6753 4.87633V4.22793C13.6557 3.9332 13.4985 3.77602 13.2038 3.75637H1.88625ZM1.41469 6.70363V11.7729C1.43434 12.0677 1.59152 12.2248 1.88625 12.2445H13.2038C13.4985 12.2248 13.6557 12.0677 13.6753 11.7729V6.70363L9.4902 10.1519C8.90074 10.6038 8.25234 10.8298 7.545 10.8298C6.83766 10.8298 6.18926 10.6038 5.5998 10.1519L1.41469 6.70363ZM0 4.22793C0.0196484 3.69742 0.206309 3.25533 0.55998 2.90166C0.913652 2.54799 1.35574 2.36133 1.88625 2.34168H13.2038C13.7343 2.36133 14.1763 2.54799 14.53 2.90166C14.8837 3.25533 15.0704 3.69742 15.09 4.22793V11.7729C15.0704 12.3034 14.8837 12.7455 14.53 13.0992C14.1763 13.4529 13.7343 13.6395 13.2038 13.6592H1.88625C1.35574 13.6395 0.913652 13.4529 0.55998 13.0992C0.206309 12.7455 0.0196484 12.3034 0 11.7729V4.22793Z" fill="#2970FF"/>
</svg>
