<svg xmlns="http://www.w3.org/2000/svg" viewBox="0 0 600 360" role="img" aria-labelledby="title desc">
  <title id="title">Awards ceremony illustration</title>
  <desc id="desc">Abstract depiction of a team receiving an award on stage</desc>
  <defs>
    <linearGradient id="stage" x1="0" x2="0" y1="0" y2="1">
      <stop offset="0%" stop-color="#132b4a" />
      <stop offset="100%" stop-color="#0a182b" />
    </linearGradient>
  </defs>
  <rect width="600" height="360" fill="#0e1f36" />
  <g opacity="0.4">
    <circle cx="120" cy="60" r="6" fill="#3dd5ff" />
    <circle cx="520" cy="90" r="4" fill="#83ffca" />
    <circle cx="420" cy="42" r="5" fill="#83ffca" />
  </g>
  <rect x="60" y="220" width="480" height="120" rx="12" fill="url(#stage)" />
  <g transform="translate(120 120)">
    <rect x="0" y="0" width="120" height="120" rx="18" fill="#1f375a" />
    <rect x="40" y="20" width="40" height="40" rx="8" fill="#ffffff" opacity="0.9" />
    <rect x="24" y="70" width="72" height="26" rx="13" fill="#37d992" opacity="0.8" />
  </g>
  <g transform="translate(250 100)">
    <rect x="0" y="0" width="120" height="140" rx="18" fill="#203a62" />
    <rect x="38" y="18" width="44" height="44" rx="12" fill="#ffffff" opacity="0.85" />
    <rect x="32" y="76" width="56" height="24" rx="12" fill="#58f7c4" opacity="0.75" />
  </g>
  <g transform="translate(380 120)">
    <rect x="0" y="0" width="120" height="120" rx="18" fill="#1a324f" />
    <rect x="40" y="22" width="40" height="40" rx="8" fill="#ffffff" opacity="0.85" />
    <rect x="24" y="70" width="72" height="24" rx="12" fill="#37d992" opacity="0.8" />
  </g>
  <path d="M150 260h300l-20 28H170z" fill="#0b1422" opacity="0.6" />
  <text x="300" y="320" text-anchor="middle" font-size="26" font-family="Arial, Helvetica, sans-serif" font-weight="600" fill="#ffffff" opacity="0.75">Awards Night Celebration</text>
</svg>
