<svg width="28" height="28" viewBox="0 0 28 28" fill="none" xmlns="http://www.w3.org/2000/svg">
<path d="M8.61719 4.90625L18.9579 10.8234" stroke="white" stroke-width="2.29793" stroke-linecap="round" stroke-linejoin="round"/>
<path d="M24.1281 9.19221C24.1277 8.78925 24.0214 8.39347 23.8196 8.04459C23.618 7.69571 23.3281 7.406 22.9792 7.20451L14.9364 2.60865C14.5871 2.40697 14.1909 2.30078 13.7875 2.30078C13.3841 2.30078 12.9878 2.40697 12.6385 2.60865L4.59574 7.20451C4.24676 7.406 3.95689 7.69571 3.75523 8.04459C3.55356 8.39347 3.44719 8.78925 3.44678 9.19221V18.3839C3.44719 18.7869 3.55356 19.1827 3.75523 19.5315C3.95689 19.8805 4.24676 20.1701 4.59574 20.3717L12.6385 24.9675C12.9878 25.1692 13.3841 25.2753 13.7875 25.2753C14.1909 25.2753 14.5871 25.1692 14.9364 24.9675L22.9792 20.3717C23.3281 20.1701 23.618 19.8805 23.8196 19.5315C24.0214 19.1827 24.1277 18.7869 24.1281 18.3839V9.19221Z" stroke="white" stroke-width="2.29793" stroke-linecap="round" stroke-linejoin="round"/>
<path d="M3.7915 8.04297L13.7875 13.7878L23.7835 8.04297" stroke="white" stroke-width="2.29793" stroke-linecap="round" stroke-linejoin="round"/>
<path d="M13.7876 25.2777V13.7881" stroke="white" stroke-width="2.29793" stroke-linecap="round" stroke-linejoin="round"/>
</svg>
