<svg width="20" height="20" viewBox="0 0 20 20" fill="none" xmlns="http://www.w3.org/2000/svg">
<path d="M20 20H0V0H20V20Z" stroke="#E5E7EB"/>
<path d="M10 3.75C11.5 3.75 12.8789 4.27734 13.957 5.16016L12.6836 6.43359C12.5039 6.61328 12.4531 6.88281 12.5469 7.11328C12.6406 7.34375 12.8711 7.5 13.125 7.5H17.5C17.8438 7.5 18.125 7.21875 18.125 6.875V2.5C18.125 2.24609 17.9727 2.01953 17.7383 1.92188C17.5039 1.82422 17.2344 1.87891 17.0586 2.05859L15.7305 3.38672C14.1953 2.05469 12.1914 1.25 10 1.25C9.57422 1.25 9.16016 1.28125 8.75 1.33984V3.875C9.15234 3.79297 9.57031 3.75 10 3.75ZM5.16016 6.04297L6.43359 7.31641C6.61328 7.49609 6.88281 7.54688 7.11328 7.45312C7.34375 7.35938 7.5 7.12891 7.5 6.875V2.5C7.5 2.15625 7.21875 1.875 6.875 1.875H2.5C2.24609 1.875 2.01953 2.02734 1.92188 2.26172C1.82422 2.49609 1.87891 2.76563 2.05859 2.94141L3.38672 4.26953C2.05469 5.80469 1.25 7.80859 1.25 10C1.25 10.4258 1.28125 10.8398 1.33984 11.25H3.875C3.79297 10.8477 3.75 10.4297 3.75 10C3.75 8.5 4.27734 7.12109 5.16016 6.04297ZM18.6602 8.75H16.125C16.207 9.15234 16.25 9.57031 16.25 10C16.25 11.5 15.7227 12.8789 14.8398 13.957L13.5664 12.6836C13.3867 12.5039 13.1172 12.4531 12.8867 12.5469C12.6562 12.6406 12.5 12.8711 12.5 13.125V17.5C12.5 17.8438 12.7812 18.125 13.125 18.125H17.5C17.7539 18.125 17.9805 17.9727 18.0781 17.7383C18.1758 17.5039 18.1211 17.2344 17.9414 17.0586L16.6133 15.7305C17.9453 14.1953 18.75 12.1914 18.75 10C18.75 9.57422 18.7188 9.16016 18.6602 8.75ZM10 16.25C8.5 16.25 7.12109 15.7227 6.04297 14.8398L7.31641 13.5664C7.49609 13.3867 7.54688 13.1172 7.45312 12.8867C7.35938 12.6562 7.12891 12.5 6.875 12.5H2.5C2.15625 12.5 1.875 12.7812 1.875 13.125V17.5C1.875 17.7539 2.02734 17.9805 2.26172 18.0781C2.49609 18.1758 2.76563 18.1211 2.94141 17.9414L4.26953 16.6133C5.80469 17.9453 7.80859 18.75 10 18.75C10.4258 18.75 10.8398 18.7188 11.25 18.6602V16.125C10.8477 16.207 10.4297 16.25 10 16.25Z" fill="#2970FF"/>
</svg>
