<svg xmlns="http://www.w3.org/2000/svg" viewBox="0 0 1600 900" role="img" aria-labelledby="title desc">
  <title id="title">Blue Line Route Background</title>
  <desc id="desc">Stylized map of the Red Sea, Arabian Peninsula, and Western India with grid overlay</desc>
  <defs>
    <linearGradient id="bg" x1="0" x2="1" y1="0" y2="1">
      <stop offset="0%" stop-color="#032522" />
      <stop offset="100%" stop-color="#073832" />
    </linearGradient>
    <clipPath id="mapClip">
      <rect width="1600" height="900" rx="28" ry="28" />
    </clipPath>
  </defs>
  <rect width="1600" height="900" fill="url(#bg)" />
  <g clip-path="url(#mapClip)">
    <g stroke="#3a7c56" stroke-width="1">
      <path d="M0 112.5h1600" opacity="0.22" />
      <path d="M0 225h1600" opacity="0.22" />
      <path d="M0 337.5h1600" opacity="0.22" />
      <path d="M0 450h1600" opacity="0.22" />
      <path d="M0 562.5h1600" opacity="0.22" />
      <path d="M0 675h1600" opacity="0.22" />
      <path d="M0 787.5h1600" opacity="0.22" />
      <path d="M160 0v900" opacity="0.22" />
      <path d="M320 0v900" opacity="0.22" />
      <path d="M480 0v900" opacity="0.22" />
      <path d="M640 0v900" opacity="0.22" />
      <path d="M800 0v900" opacity="0.22" />
      <path d="M960 0v900" opacity="0.22" />
      <path d="M1120 0v900" opacity="0.22" />
      <path d="M1280 0v900" opacity="0.22" />
      <path d="M1440 0v900" opacity="0.22" />
    </g>

    <g fill="#0c504a" opacity="0.65">
      <path d="M540 90c-40 33-94 70-124 138-30 68-24 156-10 214s51 96 84 118 63 32 93 52 58 48 80 68c22 20 38 36 32 46s-36 12-74 18c-38 6-82 14-104 32s-22 48 8 62 96 16 156 10 108-20 142-24c34-4 50 4 76 4s60-8 94-26 66-46 88-78 32-66 42-102c10-36 18-74 24-94 6-20 10-22 14-38s6-44 12-66c6-22 18-40 44-58 26-18 66-36 86-70 20-34 20-82 4-120s-48-64-78-78-58-14-90-20-66-16-106-22-86-8-126-2c-40 6-74 20-102 32-28 12-50 22-74 32-24 10-50 20-80 20s-66-10-106 4z" />
      <path d="M990 546c34 0 66 10 94 30s52 50 72 82c20 32 36 66 42 100 6 34 2 66-12 84-14 18-38 22-64 22s-54-4-94-16c-40-12-92-32-136-30-44 2-82 26-116 36-34 10-64 6-90-10-26-16-46-46-36-76 10-30 50-60 90-78 40-18 80-24 114-36 34-12 62-30 90-46 28-16 56-28 86-28z" opacity="0.55" />
      <path d="M1240 330c40-2 74 16 98 40 24 24 40 54 58 84 18 30 40 60 46 98 6 38-4 82-24 110s-48 44-80 60-64 30-90 30c-26 0-42-10-52-24-10-14-14-34-10-58s16-52 18-82c2-30-6-62-20-96-14-34-34-70-38-100-4-30 6-54 22-70 16-16 38-24 62-26z" opacity="0.55" />
    </g>

    <g fill="#0e3c38" opacity="0.8">
      <path d="M210 120c28-12 60-14 90-8 30 6 58 20 78 42s38 54 46 86c8 32 6 66-6 102s-36 74-62 94c-26 20-56 22-82 12s-48-32-64-62-26-66-30-102c-4-36-2-70 14-96s44-44 76-56z" />
      <path d="M1160 140c-24-2-52 10-72 24-20 14-34 30-46 48-12 18-24 38-22 60 2 22 18 46 40 64s52 30 80 40c28 10 52 18 70 10 18-8 32-32 40-58s12-54 6-80c-6-26-22-52-42-70-20-18-44-28-54-28z" opacity="0.65" />
    </g>
  </g>
</svg>
