<svg width="24" height="24" viewBox="0 0 24 24" fill="none" xmlns="http://www.w3.org/2000/svg">
<path fill-rule="evenodd" clip-rule="evenodd" d="M10.8338 1.53871C11.5609 1.15376 12.4391 1.15376 13.1662 1.53871L12.8152 2.20154L13.1662 1.53871C14.3681 2.17509 16.8304 3.32075 19.7836 3.8341C20.873 4.02349 21.75 4.95478 21.75 6.12325V11.0511C21.75 14.5419 19.9704 17.2085 18.0079 19.0834C16.0479 20.9559 13.848 22.0975 12.8466 22.5619C12.3057 22.8127 11.6943 22.8127 11.1534 22.5619C10.152 22.0975 7.95205 20.9559 5.99214 19.0834C4.02964 17.2085 2.25 14.5419 2.25 11.0511V6.12325C2.25 4.95478 3.12696 4.02349 4.21644 3.8341C7.1696 3.32075 9.63189 2.17509 10.8338 1.53871ZM12.4643 2.86437C12.1763 2.71188 11.8237 2.71188 11.5357 2.86437C10.259 3.54035 7.64045 4.7614 4.47333 5.31194C4.04408 5.38656 3.75 5.74173 3.75 6.12325V11.0511C3.75 13.9887 5.23918 16.2895 7.02832 17.9988C8.82004 19.7106 10.8546 20.7699 11.7844 21.2011C11.9251 21.2663 12.0749 21.2663 12.2156 21.2011C13.1454 20.7699 15.18 19.7106 16.9717 17.9988C18.7608 16.2895 20.25 13.9887 20.25 11.0511V6.12325C20.25 5.74173 19.9559 5.38656 19.5267 5.31194C16.3596 4.7614 13.741 3.54035 12.4643 2.86437Z" fill="white"/>
</svg>
