<svg width="23" height="20" viewBox="0 0 23 20" fill="none" xmlns="http://www.w3.org/2000/svg">
<g clip-path="url(#clip0_0_1719)">
<path d="M12.3789 0.703125C12.1719 0.273438 11.7344 0 11.2539 0C10.7734 0 10.3399 0.273438 10.1289 0.703125L7.6172 5.87109L2.00782 6.69922C1.53907 6.76953 1.14845 7.09766 1.00391 7.54688C0.859383 7.99609 0.97657 8.49219 1.31251 8.82422L5.38282 12.8516L4.42188 18.543C4.34376 19.0117 4.53907 19.4883 4.92579 19.7656C5.31251 20.043 5.82423 20.0781 6.2461 19.8555L11.2578 17.1797L16.2695 19.8555C16.6914 20.0781 17.2031 20.0469 17.5899 19.7656C17.9766 19.4844 18.1719 19.0117 18.0938 18.543L17.1289 12.8516L21.1992 8.82422C21.5352 8.49219 21.6563 7.99609 21.5078 7.54688C21.3594 7.09766 20.9727 6.76953 20.5039 6.69922L14.8906 5.87109L12.3789 0.703125Z" fill="#2970FF"/>
</g>
<defs>
<clipPath id="clip0_0_1719">
<path d="M0 0H22.5V20H0V0Z" fill="white"/>
</clipPath>
</defs>
</svg>
